<svg xmlns="http://www.w3.org/2000/svg" xmlns:xlink="http://www.w3.org/1999/xlink" width="500" zoomAndPan="magnify" viewBox="0 0 375 374.999991" height="500" preserveAspectRatio="xMidYMid meet" version="1.0"><defs><clipPath id="3d17b4cca9"><path d="M 51.148438 48.851562 L 305.398438 48.851562 L 305.398438 303.101562 L 51.148438 303.101562 Z M 51.148438 48.851562 " clip-rule="nonzero"/></clipPath></defs><g clip-path="url(#3d17b4cca9)"><path fill="#e1ebf0" d="M 305.398438 175.976562 C 305.398438 178.058594 305.347656 180.136719 305.242188 182.214844 C 305.140625 184.292969 304.988281 186.367188 304.785156 188.4375 C 304.582031 190.507812 304.324219 192.574219 304.019531 194.632812 C 303.714844 196.6875 303.359375 198.738281 302.953125 200.777344 C 302.546875 202.820312 302.09375 204.847656 301.585938 206.867188 C 301.082031 208.886719 300.527344 210.890625 299.921875 212.878906 C 299.320312 214.871094 298.667969 216.847656 297.964844 218.804688 C 297.265625 220.765625 296.515625 222.703125 295.71875 224.625 C 294.921875 226.550781 294.082031 228.449219 293.191406 230.332031 C 292.300781 232.210938 291.367188 234.070312 290.386719 235.90625 C 289.40625 237.738281 288.378906 239.550781 287.308594 241.332031 C 286.242188 243.117188 285.128906 244.875 283.972656 246.605469 C 282.816406 248.335938 281.617188 250.035156 280.378906 251.707031 C 279.140625 253.378906 277.859375 255.015625 276.539062 256.625 C 275.222656 258.234375 273.863281 259.808594 272.464844 261.351562 C 271.066406 262.890625 269.632812 264.398438 268.164062 265.867188 C 266.691406 267.339844 265.183594 268.773438 263.644531 270.171875 C 262.101562 271.570312 260.527344 272.925781 258.917969 274.246094 C 257.3125 275.566406 255.671875 276.847656 254 278.085938 C 252.328125 279.324219 250.628906 280.523438 248.898438 281.679688 C 247.167969 282.835938 245.410156 283.949219 243.628906 285.015625 C 241.84375 286.085938 240.03125 287.113281 238.199219 288.09375 C 236.363281 289.074219 234.503906 290.007812 232.625 290.898438 C 230.742188 291.789062 228.84375 292.628906 226.921875 293.425781 C 225 294.222656 223.058594 294.972656 221.097656 295.671875 C 219.140625 296.371094 217.164062 297.023438 215.175781 297.628906 C 213.183594 298.234375 211.179688 298.789062 209.160156 299.292969 C 207.140625 299.800781 205.113281 300.253906 203.074219 300.660156 C 201.03125 301.066406 198.984375 301.421875 196.925781 301.726562 C 194.867188 302.03125 192.800781 302.289062 190.730469 302.492188 C 188.660156 302.695312 186.585938 302.847656 184.507812 302.949219 C 182.429688 303.050781 180.351562 303.101562 178.273438 303.101562 C 176.191406 303.101562 174.113281 303.050781 172.035156 302.949219 C 169.957031 302.847656 167.882812 302.695312 165.8125 302.492188 C 163.742188 302.289062 161.675781 302.03125 159.617188 301.726562 C 157.5625 301.421875 155.511719 301.066406 153.472656 300.660156 C 151.429688 300.253906 149.402344 299.800781 147.382812 299.292969 C 145.363281 298.789062 143.359375 298.234375 141.371094 297.628906 C 139.378906 297.023438 137.402344 296.371094 135.445312 295.671875 C 133.484375 294.972656 131.546875 294.222656 129.625 293.425781 C 127.699219 292.628906 125.800781 291.789062 123.917969 290.898438 C 122.039062 290.007812 120.179688 289.074219 118.34375 288.09375 C 116.511719 287.113281 114.699219 286.085938 112.917969 285.015625 C 111.132812 283.949219 109.375 282.835938 107.644531 281.679688 C 105.914062 280.523438 104.214844 279.324219 102.542969 278.085938 C 100.871094 276.847656 99.234375 275.566406 97.625 274.246094 C 96.015625 272.925781 94.441406 271.570312 92.898438 270.171875 C 91.359375 268.773438 89.851562 267.339844 88.378906 265.867188 C 86.910156 264.398438 85.476562 262.890625 84.078125 261.351562 C 82.679688 259.808594 81.324219 258.234375 80.003906 256.625 C 78.683594 255.015625 77.402344 253.378906 76.164062 251.707031 C 74.925781 250.035156 73.726562 248.335938 72.570312 246.605469 C 71.414062 244.875 70.300781 243.117188 69.234375 241.332031 C 68.164062 239.550781 67.136719 237.738281 66.15625 235.90625 C 65.175781 234.070312 64.242188 232.210938 63.351562 230.332031 C 62.460938 228.449219 61.621094 226.550781 60.824219 224.625 C 60.027344 222.703125 59.277344 220.765625 58.578125 218.804688 C 57.878906 216.847656 57.226562 214.871094 56.621094 212.878906 C 56.015625 210.890625 55.460938 208.886719 54.957031 206.867188 C 54.449219 204.847656 53.996094 202.820312 53.589844 200.777344 C 53.183594 198.738281 52.828125 196.6875 52.523438 194.632812 C 52.21875 192.574219 51.960938 190.507812 51.757812 188.4375 C 51.554688 186.367188 51.402344 184.292969 51.300781 182.214844 C 51.199219 180.136719 51.148438 178.058594 51.148438 175.976562 C 51.148438 173.898438 51.199219 171.820312 51.300781 169.742188 C 51.402344 167.664062 51.554688 165.589844 51.757812 163.519531 C 51.960938 161.449219 52.21875 159.382812 52.523438 157.324219 C 52.828125 155.265625 53.183594 153.21875 53.589844 151.175781 C 53.996094 149.136719 54.449219 147.109375 54.957031 145.089844 C 55.460938 143.070312 56.015625 141.066406 56.621094 139.074219 C 57.226562 137.085938 57.878906 135.109375 58.578125 133.152344 C 59.277344 131.191406 60.027344 129.25 60.824219 127.328125 C 61.621094 125.40625 62.460938 123.507812 63.351562 121.625 C 64.242188 119.746094 65.175781 117.886719 66.15625 116.050781 C 67.136719 114.21875 68.164062 112.40625 69.234375 110.621094 C 70.300781 108.839844 71.414062 107.082031 72.570312 105.351562 C 73.726562 103.621094 74.925781 101.921875 76.164062 100.25 C 77.402344 98.578125 78.683594 96.9375 80.003906 95.332031 C 81.324219 93.722656 82.679688 92.148438 84.078125 90.605469 C 85.476562 89.066406 86.910156 87.558594 88.378906 86.085938 C 89.851562 84.617188 91.359375 83.183594 92.898438 81.785156 C 94.441406 80.386719 96.015625 79.027344 97.625 77.710938 C 99.234375 76.390625 100.871094 75.109375 102.542969 73.871094 C 104.214844 72.632812 105.914062 71.433594 107.644531 70.277344 C 109.375 69.121094 111.132812 68.007812 112.917969 66.9375 C 114.699219 65.871094 116.511719 64.84375 118.34375 63.863281 C 120.179688 62.882812 122.039062 61.949219 123.917969 61.058594 C 125.800781 60.167969 127.699219 59.324219 129.625 58.53125 C 131.546875 57.734375 133.484375 56.984375 135.445312 56.285156 C 137.402344 55.582031 139.378906 54.929688 141.371094 54.328125 C 143.359375 53.722656 145.363281 53.167969 147.382812 52.664062 C 149.402344 52.15625 151.429688 51.703125 153.472656 51.296875 C 155.511719 50.890625 157.5625 50.535156 159.617188 50.230469 C 161.675781 49.925781 163.742188 49.667969 165.8125 49.464844 C 167.882812 49.261719 169.957031 49.109375 172.035156 49.007812 C 174.113281 48.902344 176.191406 48.851562 178.273438 48.851562 C 180.351562 48.851562 182.429688 48.902344 184.507812 49.007812 C 186.585938 49.109375 188.660156 49.261719 190.730469 49.464844 C 192.800781 49.667969 194.867188 49.925781 196.925781 50.230469 C 198.984375 50.535156 201.03125 50.890625 203.074219 51.296875 C 205.113281 51.703125 207.140625 52.15625 209.160156 52.664062 C 211.179688 53.167969 213.183594 53.722656 215.175781 54.328125 C 217.164062 54.929688 219.140625 55.582031 221.097656 56.285156 C 223.058594 56.984375 225 57.734375 226.921875 58.53125 C 228.84375 59.324219 230.742188 60.167969 232.625 61.058594 C 234.503906 61.949219 236.363281 62.882812 238.199219 63.863281 C 240.03125 64.84375 241.84375 65.871094 243.628906 66.9375 C 245.410156 68.007812 247.167969 69.121094 248.898438 70.277344 C 250.628906 71.433594 252.328125 72.632812 254 73.871094 C 255.671875 75.109375 257.3125 76.390625 258.917969 77.710938 C 260.527344 79.027344 262.101562 80.386719 263.644531 81.785156 C 265.183594 83.183594 266.691406 84.617188 268.164062 86.085938 C 269.632812 87.558594 271.066406 89.066406 272.464844 90.605469 C 273.863281 92.148438 275.222656 93.722656 276.539062 95.332031 C 277.859375 96.9375 279.140625 98.578125 280.378906 100.25 C 281.617188 101.921875 282.816406 103.621094 283.972656 105.351562 C 285.128906 107.082031 286.242188 108.839844 287.308594 110.621094 C 288.378906 112.40625 289.40625 114.21875 290.386719 116.050781 C 291.367188 117.886719 292.300781 119.746094 293.191406 121.625 C 294.082031 123.507812 294.921875 125.40625 295.71875 127.328125 C 296.515625 129.25 297.265625 131.191406 297.964844 133.152344 C 298.667969 135.109375 299.320312 137.085938 299.921875 139.074219 C 300.527344 141.066406 301.082031 143.070312 301.585938 145.089844 C 302.09375 147.109375 302.546875 149.136719 302.953125 151.175781 C 303.359375 153.21875 303.714844 155.265625 304.019531 157.324219 C 304.324219 159.382812 304.582031 161.449219 304.785156 163.519531 C 304.988281 165.589844 305.140625 167.664062 305.242188 169.742188 C 305.347656 171.820312 305.398438 173.898438 305.398438 175.976562 Z M 305.398438 175.976562 " fill-opacity="1" fill-rule="nonzero"/></g><path fill="#4aafa3" d="M 131.847656 129.554688 C 121.679688 139.636719 114.796875 153.09375 113 168.085938 C 112.429688 172.558594 108.792969 175.976562 104.277344 175.976562 L 77.84375 175.976562 C 72.757812 175.976562 68.636719 171.636719 69.074219 166.554688 C 71.355469 140.121094 83.058594 116.273438 100.8125 98.519531 L 108.132812 97.074219 L 130.050781 114.609375 Z M 131.847656 129.554688 " fill-opacity="1" fill-rule="nonzero"/><path fill="#5dcec4" d="M 178.273438 66.386719 L 182.65625 75.15625 L 182.65625 101.457031 L 178.273438 110.222656 C 160.167969 110.222656 143.730469 117.589844 131.847656 129.554688 L 100.8125 98.519531 C 120.671875 78.660156 148.070312 66.386719 178.273438 66.386719 Z M 178.273438 66.386719 " fill-opacity="1" fill-rule="nonzero"/><path fill="#f9d438" d="M 255.730469 98.519531 L 257.140625 105.84375 L 235.257812 127.757812 L 224.738281 129.554688 L 224.695312 129.554688 C 212.816406 117.589844 196.421875 110.222656 178.273438 110.222656 L 178.273438 66.386719 C 208.476562 66.386719 235.871094 78.660156 255.730469 98.519531 Z M 255.730469 98.519531 " fill-opacity="1" fill-rule="nonzero"/><path fill="#f9415b" d="M 287.46875 166.554688 C 287.90625 171.636719 283.785156 175.976562 278.699219 175.976562 L 252.265625 175.976562 C 247.753906 175.976562 244.113281 172.558594 243.542969 168.085938 C 241.746094 153.140625 234.90625 139.683594 224.738281 129.554688 L 255.730469 98.519531 C 273.484375 116.273438 285.1875 140.121094 287.46875 166.554688 Z M 287.46875 166.554688 " fill-opacity="1" fill-rule="nonzero"/><path fill="#313851" d="M 243.371094 115.957031 C 232.070312 133.207031 211.34375 162.859375 189.105469 185.097656 C 182.878906 191.320312 172.308594 190.539062 167.230469 182.714844 C 163.519531 177.085938 164.664062 169.628906 169.425781 164.871094 C 191.664062 142.722656 221.128906 122.128906 238.292969 110.878906 C 241.632812 108.636719 245.570312 112.617188 243.371094 115.957031 Z M 243.371094 115.957031 " fill-opacity="1" fill-rule="nonzero"/><path fill="#313851" d="M 192.425781 211.160156 C 190.453125 210.695312 188.40625 211.648438 187.5 213.46875 L 178.273438 231.925781 L 169.042969 213.46875 C 168.136719 211.648438 166.078125 210.695312 164.117188 211.160156 C 162.140625 211.628906 160.738281 213.398438 160.738281 215.429688 L 160.738281 259.265625 C 160.738281 261.691406 162.695312 263.652344 165.121094 263.652344 C 167.546875 263.652344 169.503906 261.691406 169.503906 259.265625 L 169.503906 234 L 174.347656 243.691406 C 175.839844 246.664062 180.699219 246.664062 182.191406 243.691406 L 187.035156 234 L 187.035156 259.265625 C 187.035156 261.691406 188.992188 263.652344 191.417969 263.652344 C 193.84375 263.652344 195.800781 261.691406 195.800781 259.265625 L 195.800781 215.429688 C 195.800781 213.398438 194.402344 211.632812 192.421875 211.160156 Z M 192.425781 211.160156 " fill-opacity="1" fill-rule="nonzero"/><path fill="#313851" d="M 239.640625 254.882812 L 230.875 254.882812 L 230.875 219.8125 L 239.640625 219.8125 C 242.066406 219.8125 244.027344 217.855469 244.027344 215.429688 C 244.027344 213.007812 242.066406 211.046875 239.640625 211.046875 L 213.339844 211.046875 C 210.917969 211.046875 208.957031 213.007812 208.957031 215.429688 C 208.957031 217.855469 210.917969 219.8125 213.339844 219.8125 L 222.109375 219.8125 L 222.109375 254.882812 L 213.339844 254.882812 C 210.917969 254.882812 208.957031 256.84375 208.957031 259.265625 C 208.957031 261.691406 210.917969 263.652344 213.339844 263.652344 L 239.640625 263.652344 C 242.066406 263.652344 244.027344 261.691406 244.027344 259.265625 C 244.027344 256.84375 242.066406 254.882812 239.640625 254.882812 Z M 239.640625 254.882812 " fill-opacity="1" fill-rule="nonzero"/><path fill="#313851" d="M 147.585938 226.390625 C 147.585938 217.929688 140.703125 211.046875 132.242188 211.046875 L 116.902344 211.046875 C 114.476562 211.046875 112.515625 213.007812 112.515625 215.429688 L 112.515625 259.265625 C 112.515625 261.691406 114.476562 263.652344 116.902344 263.652344 L 132.242188 263.652344 C 140.703125 263.652344 147.585938 256.769531 147.585938 248.308594 C 147.585938 244.011719 145.800781 240.136719 142.949219 237.347656 C 145.800781 234.5625 147.585938 230.6875 147.585938 226.390625 Z M 138.820312 248.308594 C 138.820312 251.933594 135.867188 254.882812 132.242188 254.882812 L 121.285156 254.882812 L 121.285156 241.734375 L 132.242188 241.734375 C 135.867188 241.734375 138.820312 244.683594 138.820312 248.308594 Z M 121.285156 232.964844 L 121.285156 219.8125 L 132.242188 219.8125 C 135.867188 219.8125 138.820312 222.765625 138.820312 226.390625 C 138.820312 230.015625 135.867188 232.964844 132.242188 232.964844 Z M 121.285156 232.964844 " fill-opacity="1" fill-rule="nonzero"/></svg>