<svg xmlns="http://www.w3.org/2000/svg" xmlns:xlink="http://www.w3.org/1999/xlink" width="500" zoomAndPan="magnify" viewBox="0 0 375 374.999991" height="500" preserveAspectRatio="xMidYMid meet" version="1.0"><defs><g/><clipPath id="36a0d5f5ee"><path d="M 89 13.140625 L 305 13.140625 L 305 306.390625 L 89 306.390625 Z M 89 13.140625 " clip-rule="nonzero"/></clipPath></defs><g clip-path="url(#36a0d5f5ee)"><path fill="#eb1297" d="M 143.085938 290.855469 C 141.785156 290.277344 140.367188 289.765625 138.785156 289.351562 C 102.808594 279.910156 95.09375 253.214844 89.9375 232.1875 C 86.75 219.195312 92.953125 203.996094 99.019531 189.28125 C 98.777344 200.113281 100.328125 214.140625 107.847656 225.53125 C 118.53125 241.71875 139.070312 265.628906 183.007812 257.722656 C 201.507812 254.394531 216.070312 230.832031 229.3125 225.53125 C 239.140625 221.597656 260.558594 225.554688 262.355469 225.898438 C 301.527344 233.445312 309.476562 270.582031 301.5 306.046875 L 301.40625 306.464844 C 301.40625 306.464844 297.410156 262.4375 271.640625 256.609375 C 241.792969 249.863281 218.386719 283.515625 196.78125 290.777344 C 174.210938 298.363281 143.039062 290.777344 143.039062 290.777344 Z M 152.296875 297.015625 C 163.835938 298.691406 182.910156 300.167969 198.207031 295.027344 C 209.339844 291.285156 221.007812 280.863281 233.667969 272.128906 C 244.90625 264.371094 256.996094 257.894531 270.652344 260.980469 C 279.601562 263.007812 285.324219 270.554688 289.210938 278.621094 C 291.414062 283.191406 293.015625 287.972656 294.171875 292.277344 C 285.480469 280.679688 272.984375 276.925781 260.296875 276.925781 C 238.726562 276.925781 219.9375 306.464844 178.117188 306.464844 C 163.707031 306.464844 157.980469 301.6875 152.296875 297.015625 Z M 105.425781 172.621094 C 105.40625 172.773438 105.378906 172.925781 105.339844 173.078125 C 105.339844 173.078125 98.097656 202.625 111.585938 223.0625 C 121.628906 238.273438 140.925781 260.742188 182.214844 253.3125 C 190.683594 251.789062 198.136719 245.441406 205.105469 239.0625 C 213.160156 231.679688 220.632812 224.179688 227.648438 221.371094 C 232.234375 219.535156 239.066406 219.113281 245.628906 219.417969 C 252.269531 219.726562 258.601562 220.695312 261.574219 221.203125 L 262.421875 220.675781 C 270.910156 197.324219 261.160156 163.1875 261.160156 163.1875 C 259.84375 151.328125 257.210938 127.609375 257.300781 105.207031 C 257.386719 82.914062 251.449219 55.460938 239.316406 40.117188 C 227.183594 24.773438 210.066406 13.140625 184.503906 13.140625 C 158.941406 13.140625 141.824219 24.773438 129.691406 40.117188 C 117.5625 55.460938 111.621094 82.914062 111.710938 105.207031 C 111.796875 127.609375 111.121094 144.097656 107.847656 163.1875 C 107.328125 166.226562 106.480469 169.382812 105.425781 172.621094 Z M 129.402344 228.296875 C 129.402344 228.296875 130.410156 230.671875 133.167969 233.933594 C 133.753906 234.625 134.417969 235.339844 135.171875 236.078125 C 137.246094 238.113281 139.9375 240.296875 143.382812 242.316406 C 144.601562 243.03125 145.914062 243.730469 147.34375 244.332031 C 149.125 245.085938 151.085938 245.710938 153.191406 246.234375 C 155.074219 246.703125 157.074219 247.097656 159.210938 247.320312 C 162.90625 247.707031 166.890625 247.628906 171.308594 247.25 C 168.273438 246.8125 165.523438 246.207031 162.894531 245.558594 C 160.980469 245.085938 159.191406 244.570312 157.46875 244.042969 C 156.371094 243.707031 155.308594 243.371094 154.28125 243.023438 C 152.628906 242.464844 151.089844 241.839844 149.613281 241.261719 C 147.789062 240.542969 146.085938 239.855469 144.515625 239.125 C 140.46875 237.246094 137.328125 235.234375 134.960938 233.425781 C 131.1875 230.539062 129.402344 228.296875 129.402344 228.296875 Z M 118.046875 189.449219 C 118.046875 189.449219 118.53125 193.65625 121.050781 200.074219 C 121.585938 201.441406 122.222656 202.894531 122.976562 204.433594 C 125.066406 208.703125 127.96875 213.550781 132.003906 218.523438 C 133.453125 220.3125 135.042969 222.125 136.839844 223.875 C 139.109375 226.082031 141.6875 228.210938 144.535156 230.261719 C 147.109375 232.121094 149.898438 233.925781 152.972656 235.5625 C 158.335938 238.421875 164.429688 240.792969 171.308594 242.832031 C 166.839844 240.632812 162.851562 238.265625 159.136719 235.859375 C 156.429688 234.109375 153.929688 232.332031 151.566406 230.546875 C 150.054688 229.410156 148.609375 228.285156 147.222656 227.152344 C 145.003906 225.335938 142.984375 223.480469 141.058594 221.695312 C 138.695312 219.5 136.511719 217.378906 134.554688 215.273438 C 129.601562 209.949219 126.023438 204.871094 123.480469 200.613281 C 119.527344 193.984375 118.046875 189.449219 118.046875 189.449219 Z M 118.046875 121.597656 C 118.046875 121.597656 117.695312 131.75 118.960938 145.53125 C 119.628906 152.808594 120.789062 161.054688 122.578125 169.328125 C 123.957031 175.710938 125.683594 182.105469 127.996094 188.019531 C 129.65625 192.261719 131.675781 196.21875 133.859375 199.824219 C 137.328125 205.292969 141 210.039062 144.820312 214.027344 C 147.761719 217.097656 150.75 219.738281 153.691406 222 C 167.625 232.722656 179.816406 235.246094 179.816406 235.246094 C 179.816406 235.246094 168.578125 230.980469 156.316406 218.976562 C 153.800781 216.511719 151.253906 213.726562 148.695312 210.597656 C 145.40625 206.570312 142.128906 201.988281 139.164062 196.667969 C 137.1875 193.292969 135.511719 189.539062 133.882812 185.640625 C 131.539062 180.015625 129.417969 174.046875 127.652344 168.039062 C 125.304688 160.0625 123.496094 152.105469 122.0625 145.074219 C 119.3125 131.585938 118.046875 121.597656 118.046875 121.597656 Z M 184.503906 202.410156 C 221.1875 202.410156 243.167969 140.175781 243.167969 117.195312 C 243.167969 94.214844 184.503906 64.527344 184.503906 64.527344 C 184.503906 64.527344 125.839844 94.214844 125.839844 117.195312 C 125.839844 140.175781 147.820312 202.410156 184.503906 202.410156 Z M 126.628906 85.097656 C 126.628906 85.097656 129.878906 79.304688 135.898438 71.761719 C 138.847656 68.0625 142.441406 63.953125 146.707031 59.917969 C 151.039062 55.816406 156.0625 51.863281 161.753906 48.496094 C 163.167969 47.660156 164.625 46.867188 166.109375 46.085938 C 168.269531 44.949219 170.492188 43.855469 172.835938 42.929688 C 177.691406 40.886719 182.238281 40.054688 186.4375 39.96875 C 189.789062 39.898438 192.902344 40.261719 195.792969 40.953125 C 208.691406 44.046875 216.914062 53.0625 216.914062 53.0625 C 216.914062 53.0625 213.964844 48.378906 208.265625 43.695312 C 205.25 41.210938 201.503906 38.773438 197.027344 37.027344 C 193.875 35.792969 190.375 34.957031 186.5625 34.691406 C 181.703125 34.355469 176.367188 35.085938 170.59375 37.085938 C 167.988281 38.058594 165.46875 39.152344 163.097656 40.4375 C 161.480469 41.3125 159.929688 42.273438 158.441406 43.289062 C 152.605469 47.269531 147.617188 51.984375 143.449219 56.804688 C 139.472656 61.402344 136.234375 66.050781 133.734375 70.269531 C 128.75 78.671875 126.628906 85.097656 126.628906 85.097656 Z M 132.132812 84.03125 L 132.054688 84.082031 L 132.007812 84.222656 C 132.003906 84.238281 132.011719 84.246094 132.023438 84.230469 Z M 132.132812 84.03125 " fill-opacity="1" fill-rule="evenodd"/></g><g fill="#eb1297" fill-opacity="1"><g transform="translate(51.95163, 360.010464)"><g><path d="M 10.46875 -38.09375 L 10.46875 0 L 5.171875 0 L 5.171875 -38.09375 Z M 10.46875 -38.09375 "/></g></g></g><g fill="#eb1297" fill-opacity="1"><g transform="translate(67.602272, 360.010464)"><g><path d="M 25.5 -9.03125 L 38.21875 -38.09375 L 44.078125 -38.09375 L 46.203125 0 L 40.34375 0 L 38.78125 -32.75 L 38.5625 -32.75 L 24.046875 0 L 23.25 0 L 9.03125 -31.421875 L 8.796875 -31.421875 L 7.25 0 L 4.71875 0 L 6.84375 -38.09375 L 12.203125 -38.09375 Z M 25.5 -9.03125 "/></g></g></g><g fill="#eb1297" fill-opacity="1"><g transform="translate(118.754532, 360.010464)"><g><path d="M 10.8125 -18.1875 L 10.8125 0 L 5.171875 0 L 5.171875 -38.09375 L 17.609375 -38.09375 C 21.484375 -38.09375 24.65625 -37.226562 27.125 -35.5 C 29.601562 -33.78125 30.84375 -31.507812 30.84375 -28.6875 C 30.84375 -25.863281 29.851562 -23.632812 27.875 -22 C 25.90625 -20.375 23.234375 -19.253906 19.859375 -18.640625 L 35.28125 0 L 28.59375 0.8125 L 15.25 -18.1875 Z M 10.8125 -19.90625 L 14.5 -19.90625 C 21.40625 -19.90625 24.859375 -22.628906 24.859375 -28.078125 C 24.859375 -29.003906 24.628906 -30.039062 24.171875 -31.1875 C 23.285156 -33.601562 21.40625 -35.195312 18.53125 -35.96875 C 15.914062 -35.96875 13.34375 -35.640625 10.8125 -34.984375 Z M 10.8125 -19.90625 "/></g></g></g><g fill="#eb1297" fill-opacity="1"><g transform="translate(155.464475, 360.010464)"><g><path d="M 0.578125 0 L 17.671875 -39.015625 L 18.53125 -39.015625 L 35.625 0 L 29.34375 0 L 25.03125 -10.359375 L 7.9375 -10.359375 L 3.6875 0 Z M 8.796875 -12.546875 L 24.109375 -12.546875 L 16.515625 -31.1875 Z M 8.796875 -12.546875 "/></g></g></g><g fill="#eb1297" fill-opacity="1"><g transform="translate(191.656573, 360.010464)"><g><path d="M 0.578125 0 L 17.671875 -39.015625 L 18.53125 -39.015625 L 35.625 0 L 29.34375 0 L 25.03125 -10.359375 L 7.9375 -10.359375 L 3.6875 0 Z M 8.796875 -12.546875 L 24.109375 -12.546875 L 16.515625 -31.1875 Z M 8.796875 -12.546875 "/></g></g></g><g fill="#eb1297" fill-opacity="1"><g transform="translate(227.848671, 360.010464)"><g><path d="M 18.1875 0 L 12.609375 0 L 12.609375 -35.328125 C 11.296875 -35.640625 9.988281 -35.796875 8.6875 -35.796875 L 0.921875 -34.015625 L 0.578125 -38.09375 L 30.21875 -38.09375 L 29.921875 -34.015625 L 22.09375 -35.796875 C 20.789062 -35.796875 19.488281 -35.640625 18.1875 -35.328125 Z M 18.1875 0 "/></g></g></g><g fill="#eb1297" fill-opacity="1"><g transform="translate(258.632097, 360.010464)"><g><path d="M 33.5 -38.09375 L 33.5 -14.734375 C 33.5 -11.160156 33.113281 -8.472656 32.34375 -6.671875 C 32 -5.867188 31.453125 -4.957031 30.703125 -3.9375 C 29.953125 -2.925781 29.078125 -2.113281 28.078125 -1.5 C 25.546875 -0.0390625 22.382812 0.6875 18.59375 0.6875 C 9.070312 0.6875 4.3125 -4.203125 4.3125 -13.984375 L 4.3125 -38.09375 L 10.1875 -38.09375 L 10.1875 -13.53125 C 10.1875 -12.414062 10.203125 -11.507812 10.234375 -10.8125 C 10.273438 -10.125 10.476562 -9.144531 10.84375 -7.875 C 11.207031 -6.613281 11.707031 -5.597656 12.34375 -4.828125 C 12.976562 -4.066406 13.972656 -3.378906 15.328125 -2.765625 C 16.691406 -2.148438 18.316406 -1.84375 20.203125 -1.84375 C 27.367188 -1.84375 30.953125 -5.675781 30.953125 -13.34375 L 30.953125 -38.09375 Z M 33.5 -38.09375 "/></g></g></g><g fill="#eb1297" fill-opacity="1"><g transform="translate(296.435272, 360.010464)"><g><path d="M 34.125 0.640625 L 33.140625 0.640625 L 7.9375 -30.90625 L 7.71875 -30.90625 L 7.71875 0 L 5.171875 0 L 5.171875 -38.09375 L 9.4375 -38.09375 L 31.359375 -10.421875 L 31.59375 -10.421875 L 31.59375 -38.09375 L 34.125 -38.09375 Z M 34.125 0.640625 "/></g></g></g></svg>