<svg xmlns="http://www.w3.org/2000/svg" xmlns:xlink="http://www.w3.org/1999/xlink" width="500" zoomAndPan="magnify" viewBox="0 0 375 374.999991" height="500" preserveAspectRatio="xMidYMid meet" version="1.0"><defs><filter x="0%" y="0%" width="100%" height="100%" id="5e8c4f26f8"><feColorMatrix values="0 0 0 0 1 0 0 0 0 1 0 0 0 0 1 0 0 0 1 0" color-interpolation-filters="sRGB"/></filter><mask id="9083ecc957"><g filter="url(#5e8c4f26f8)"><rect x="-37.5" width="450" fill="#000000" y="-37.499999" height="449.999989" fill-opacity="0.42"/></g></mask><clipPath id="feda34b662"><path d="M 0.640625 0.839844 L 29.441406 0.839844 L 29.441406 14.28125 L 0.640625 14.28125 Z M 0.640625 0.839844 " clip-rule="nonzero"/></clipPath><clipPath id="20bb5e511a"><rect x="0" width="30" y="0" height="15"/></clipPath><mask id="1b5def07d9"><g filter="url(#5e8c4f26f8)"><rect x="-37.5" width="450" fill="#000000" y="-37.499999" height="449.999989" fill-opacity="0.35"/></g></mask><clipPath id="1006f1c1fb"><path d="M 0.761719 0.238281 L 204.761719 0.238281 L 204.761719 70.558594 L 0.761719 70.558594 Z M 0.761719 0.238281 " clip-rule="nonzero"/></clipPath><clipPath id="0afb977826"><rect x="0" width="205" y="0" height="71"/></clipPath><clipPath id="2b266a7e65"><path d="M 66 219 L 303 219 L 303 298.3125 L 66 298.3125 Z M 66 219 " clip-rule="nonzero"/></clipPath><clipPath id="1712ebde4b"><path d="M 65 217 L 305 217 L 305 298.3125 L 65 298.3125 Z M 65 217 " clip-rule="nonzero"/></clipPath><mask id="a748baebd3"><g filter="url(#5e8c4f26f8)"><rect x="-37.5" width="450" fill="#000000" y="-37.499999" height="449.999989" fill-opacity="0.19"/></g></mask><clipPath id="18bff1fb99"><path d="M 0.800781 0.238281 L 164.480469 0.238281 L 164.480469 63.601562 L 0.800781 63.601562 Z M 0.800781 0.238281 " clip-rule="nonzero"/></clipPath><clipPath id="f2bf534f02"><rect x="0" width="165" y="0" height="64"/></clipPath><mask id="272e3d9bd1"><g filter="url(#5e8c4f26f8)"><rect x="-37.5" width="450" fill="#000000" y="-37.499999" height="449.999989" fill-opacity="0.62"/></g></mask><clipPath id="9892f08e64"><path d="M 0.960938 0.28125 L 209.519531 0.28125 L 209.519531 70.121094 L 0.960938 70.121094 Z M 0.960938 0.28125 " clip-rule="nonzero"/></clipPath><clipPath id="3c998420d3"><rect x="0" width="210" y="0" height="71"/></clipPath><mask id="1e7884da78"><g filter="url(#5e8c4f26f8)"><rect x="-37.5" width="450" fill="#000000" y="-37.499999" height="449.999989" fill-opacity="0.35"/></g></mask><clipPath id="e70d66fba0"><path d="M 0.0390625 1 L 204 1 L 204 70.878906 L 0.0390625 70.878906 Z M 0.0390625 1 " clip-rule="nonzero"/></clipPath><clipPath id="7bba2f5337"><path d="M 0.0390625 0.558594 L 204.039062 0.558594 L 204.039062 70.878906 L 0.0390625 70.878906 Z M 0.0390625 0.558594 " clip-rule="nonzero"/></clipPath><clipPath id="e0b88ef03b"><rect x="0" width="205" y="0" height="71"/></clipPath><clipPath id="2ee195618e"><path d="M 70 144 L 309.570312 144 L 309.570312 227 L 70 227 Z M 70 144 " clip-rule="nonzero"/></clipPath><mask id="500736b35b"><g filter="url(#5e8c4f26f8)"><rect x="-37.5" width="450" fill="#000000" y="-37.499999" height="449.999989" fill-opacity="0.19"/></g></mask><clipPath id="347cb03cd0"><path d="M 0.078125 1 L 163.761719 1 L 163.761719 63 L 0.078125 63 Z M 0.078125 1 " clip-rule="nonzero"/></clipPath><clipPath id="3f15e2634f"><path d="M 0.078125 0.558594 L 163.761719 0.558594 L 163.761719 63.679688 L 0.078125 63.679688 Z M 0.078125 0.558594 " clip-rule="nonzero"/></clipPath><clipPath id="8c191b44de"><rect x="0" width="164" y="0" height="64"/></clipPath><clipPath id="7029c7e95d"><path d="M 303 173 L 309.570312 173 L 309.570312 180 L 303 180 Z M 303 173 " clip-rule="nonzero"/></clipPath><clipPath id="5dcaf6623d"><path d="M 71 68.0625 L 302 68.0625 L 302 148 L 71 148 Z M 71 68.0625 " clip-rule="nonzero"/></clipPath><clipPath id="6e7ae2138a"><path d="M 69 68.0625 L 304 68.0625 L 304 150 L 69 150 Z M 69 68.0625 " clip-rule="nonzero"/></clipPath><mask id="db4b27b7bf"><g filter="url(#5e8c4f26f8)"><rect x="-37.5" width="450" fill="#000000" y="-37.499999" height="449.999989" fill-opacity="0.52"/></g></mask><clipPath id="b22e70900e"><path d="M 0.441406 0.238281 L 204.441406 0.238281 L 204.441406 71.039062 L 0.441406 71.039062 Z M 0.441406 0.238281 " clip-rule="nonzero"/></clipPath><clipPath id="43c7001f70"><rect x="0" width="205" y="0" height="72"/></clipPath><mask id="6a9ccfbc7f"><g filter="url(#5e8c4f26f8)"><rect x="-37.5" width="450" fill="#000000" y="-37.499999" height="449.999989" fill-opacity="0.19"/></g></mask><clipPath id="38b7856ecf"><path d="M 1 1 L 163.921875 1 L 163.921875 65 L 1 65 Z M 1 1 " clip-rule="nonzero"/></clipPath><clipPath id="75c905c9e6"><path d="M 0.480469 0.761719 L 163.921875 0.761719 L 163.921875 65.078125 L 0.480469 65.078125 Z M 0.480469 0.761719 " clip-rule="nonzero"/></clipPath><clipPath id="1bca284a72"><rect x="0" width="164" y="0" height="66"/></clipPath><mask id="5b06e4ca5d"><g filter="url(#5e8c4f26f8)"><rect x="-37.5" width="450" fill="#000000" y="-37.499999" height="449.999989" fill-opacity="0.16"/></g></mask><clipPath id="76f0bdc01f"><path d="M 0 1 L 22 1 L 22 11.800781 L 0 11.800781 Z M 0 1 " clip-rule="nonzero"/></clipPath><clipPath id="cc036637f1"><path d="M 0 0.28125 L 22.320312 0.28125 L 22.320312 11.800781 L 0 11.800781 Z M 0 0.28125 " clip-rule="nonzero"/></clipPath><clipPath id="186df9de97"><rect x="0" width="23" y="0" height="12"/></clipPath></defs><g mask="url(#9083ecc957)"><g transform="matrix(1, 0, 0, 1, 62, 177)"><g clip-path="url(#20bb5e511a)"><path fill="#010101" d="M 11.617188 1.777344 L 1.394531 7.15625 L 28.726562 13.484375 Z M 11.617188 1.777344 " fill-opacity="1" fill-rule="nonzero"/><g clip-path="url(#feda34b662)"><path stroke-linecap="butt" transform="matrix(0.132204, 0, 0, 0.13213, -10.127073, -126.641898)" fill="none" stroke-linejoin="miter" d="M 164.475625 971.914815 L 87.150494 1012.623969 L 293.892543 1060.517091 Z M 164.475625 971.914815 " stroke="#000000" stroke-width="1" stroke-opacity="1" stroke-miterlimit="10"/></g></g></g></g><path stroke-linecap="butt" transform="matrix(0.132204, 0, 0, 0.13213, 51.872927, 50.358109)" fill-opacity="1" fill="#ffffff" fill-rule="nonzero" stroke-linejoin="miter" d="M 1874.935893 1522.06483 L 1871.360677 1353.670247 L 660.041964 1632.04163 L 197.804917 1359.789924 C 197.804917 1359.789924 187.729308 1351.275591 179.131061 1355.296248 C 170.532813 1359.316905 169.794132 1366.885201 169.794132 1366.885201 L 163.441476 1505.065728 C 163.441476 1505.065728 162.584606 1513.905261 168.996357 1517.985046 C 175.437656 1522.06483 648.902654 1818.499606 648.902654 1818.499606 Z M 1874.935893 1522.06483 " stroke="#000000" stroke-width="1" stroke-opacity="1" stroke-miterlimit="10"/><path stroke-linecap="butt" transform="matrix(0.132204, 0, 0, 0.13213, 51.872927, 50.358109)" fill-opacity="1" fill="#f26822" fill-rule="nonzero" stroke-linejoin="miter" d="M 1293.741652 998.019468 L 1888.586719 1299.687012 L 665.0059 1591.77593 L 148.372382 1281.416672 Z M 1293.741652 998.019468 " stroke="#000000" stroke-width="1" stroke-opacity="1" stroke-miterlimit="10"/><g mask="url(#1b5def07d9)"><g transform="matrix(1, 0, 0, 1, 83, 186)"><g clip-path="url(#0afb977826)"><path fill="#f9a11b" d="M 57.671875 69.769531 C 57.527344 69.769531 57.382812 69.730469 57.257812 69.652344 L 1.949219 36.445312 C 1.671875 36.277344 1.519531 35.960938 1.566406 35.640625 C 1.617188 35.320312 1.855469 35.058594 2.167969 34.980469 L 139.070312 1.125 C 139.257812 1.078125 139.457031 1.101562 139.628906 1.1875 L 203.476562 33.550781 C 203.777344 33.703125 203.953125 34.023438 203.914062 34.359375 C 203.871094 34.695312 203.628906 34.96875 203.300781 35.046875 L 57.859375 69.746094 C 57.796875 69.757812 57.734375 69.769531 57.671875 69.769531 Z M 4.445312 36.070312 L 57.804688 68.105469 L 200.800781 33.992188 L 139.167969 2.753906 Z M 4.445312 36.070312 " fill-opacity="1" fill-rule="nonzero"/><g clip-path="url(#1006f1c1fb)"><path stroke-linecap="butt" transform="matrix(0.132204, 0, 0, 0.13213, -31.127073, -135.641898)" fill="none" stroke-linejoin="miter" d="M 671.683573 1554.61447 C 670.590325 1554.61447 669.497077 1554.318833 668.551566 1553.72756 L 250.192173 1302.406922 C 248.094319 1301.135685 246.941976 1298.741029 247.296543 1296.316809 C 247.680657 1293.89259 249.483039 1291.911825 251.846818 1291.320552 L 1287.388992 1035.092347 C 1288.807259 1034.737583 1290.314169 1034.914965 1291.614247 1035.565366 L 1774.56391 1280.500254 C 1776.839048 1281.653236 1778.168673 1284.077456 1777.873201 1286.61993 C 1777.548181 1289.162405 1775.716252 1291.231861 1773.234284 1291.823134 L 673.101841 1554.437088 C 672.629085 1554.525779 672.156329 1554.61447 671.683573 1554.61447 Z M 269.07286 1299.568812 L 672.688179 1542.020352 L 1754.32405 1283.840947 L 1288.127673 1047.420392 Z M 269.07286 1299.568812 " stroke="#000000" stroke-width="1" stroke-opacity="1" stroke-miterlimit="10"/></g></g></g></g><g clip-path="url(#2b266a7e65)"><path fill="#cd5928" d="M 302.921875 250.703125 L 302.921875 257.121094 L 138.394531 298.25 L 68.574219 253.386719 C 68.574219 253.386719 63.523438 235.695312 71.488281 219.671875 L 139.789062 260.679688 L 301.550781 222.085938 L 301.550781 228.699219 L 139.132812 266 L 77.261719 229.578125 C 75.988281 228.824219 74.367188 229.695312 74.300781 231.175781 L 73.472656 249.382812 C 73.441406 250.035156 73.765625 250.65625 74.320312 251.003906 L 137.660156 290.636719 Z M 302.921875 250.703125 " fill-opacity="1" fill-rule="nonzero"/></g><g clip-path="url(#1712ebde4b)"><path stroke-linecap="butt" transform="matrix(0.132204, 0, 0, 0.13213, 51.872927, 50.358109)" fill="none" stroke-linejoin="miter" d="M 1898.9578 1516.270354 L 1898.9578 1564.84344 L 654.457535 1876.119171 L 126.33014 1536.580585 C 126.33014 1536.580585 88.125557 1402.686788 148.372382 1281.416672 L 665.0059 1591.77593 L 1888.586719 1299.687012 L 1888.586719 1349.738281 L 660.041964 1632.04163 L 192.043205 1356.390103 C 182.410805 1350.684318 170.148699 1357.277013 169.646396 1368.481639 L 163.382381 1506.277838 C 163.146003 1511.214969 165.598424 1515.91559 169.794132 1518.546755 L 648.902654 1818.499606 Z M 1898.9578 1516.270354 " stroke="#000000" stroke-width="1" stroke-opacity="1" stroke-miterlimit="10"/></g><g mask="url(#a748baebd3)"><g transform="matrix(1, 0, 0, 1, 136, 228)"><g clip-path="url(#f2bf534f02)"><path fill="#f9a11b" d="M 1.660156 62.636719 L 3.132812 38 L 163.273438 1.222656 L 163.746094 23.46875 Z M 1.660156 62.636719 " fill-opacity="1" fill-rule="nonzero"/><g clip-path="url(#18bff1fb99)"><path stroke-linecap="butt" transform="matrix(0.132204, 0, 0, 0.13213, -84.127069, -177.641898)" fill="none" stroke-linejoin="miter" d="M 648.902617 1818.499661 L 660.041927 1632.041684 L 1871.360641 1353.699865 L 1874.935857 1522.064885 Z M 648.902617 1818.499661 " stroke="#000000" stroke-width="1" stroke-opacity="1" stroke-miterlimit="10"/></g></g></g></g><path stroke-linecap="butt" transform="matrix(0.132204, 0, 0, 0.13213, 51.872927, 50.358109)" fill-opacity="1" fill="#e98d24" fill-rule="nonzero" stroke-linejoin="miter" d="M 1898.9578 1516.270354 L 1874.522232 1503.025836 L 1874.935893 1522.06483 Z M 1898.9578 1516.270354 " stroke="#000000" stroke-width="1" stroke-opacity="1" stroke-miterlimit="10"/><path stroke-linecap="butt" transform="matrix(0.132204, 0, 0, 0.13213, 51.872927, 50.358109)" fill-opacity="1" fill="#e98d24" fill-rule="nonzero" stroke-linejoin="miter" d="M 1888.586719 1349.708717 L 1871.449319 1357.158758 L 1871.360677 1353.699811 Z M 1888.586719 1349.708717 " stroke="#000000" stroke-width="1" stroke-opacity="1" stroke-miterlimit="10"/><path stroke-linecap="butt" transform="matrix(0.132204, 0, 0, 0.13213, 51.872927, 50.358109)" fill-opacity="1" fill="#fce586" fill-rule="nonzero" stroke-linejoin="miter" d="M 1251.814117 1086.858254 L 1572.460782 1263.087206 L 1450.076107 1306.131889 L 1146.625937 1115.416745 Z M 1251.814117 1086.858254 " stroke="#000000" stroke-width="1" stroke-opacity="1" stroke-miterlimit="10"/><path stroke-linecap="butt" transform="matrix(0.132204, 0, 0, 0.13213, 51.872927, 50.358109)" fill-opacity="1" fill="#fce586" fill-rule="nonzero" stroke-linejoin="miter" d="M 1050.272382 1150.656623 L 1354.047572 1331.142741 L 1341.75592 1338.32671 L 1038.30575 1156.687609 Z M 1050.272382 1150.656623 " stroke="#000000" stroke-width="1" stroke-opacity="1" stroke-miterlimit="10"/><path stroke-linecap="butt" transform="matrix(0.132204, 0, 0, 0.13213, 51.872927, 50.358109)" fill-opacity="1" fill="#e5e1d3" fill-rule="nonzero" stroke-linejoin="miter" d="M 195.441138 1397.572276 C 231.488773 1418.000762 267.122746 1439.079649 302.579436 1460.424608 C 320.337328 1471.008397 337.947484 1481.858258 355.646282 1492.589865 L 408.506297 1525.13945 L 461.129934 1558.073363 C 478.592354 1569.189297 496.143415 1580.157414 513.517193 1591.421167 C 548.353391 1613.741727 583.041852 1636.32836 617.287105 1659.594957 C 581.269018 1639.196034 545.635045 1618.117148 510.178355 1596.772188 C 492.390915 1586.188399 474.780759 1575.338538 457.081962 1564.606931 L 404.251494 1532.027782 L 351.627857 1499.09387 C 334.165437 1487.977935 316.643923 1477.009819 299.270145 1465.746066 C 264.4044 1443.425506 229.715938 1420.838873 195.441138 1397.572276 Z M 195.441138 1397.572276 " stroke="#000000" stroke-width="1" stroke-opacity="1" stroke-miterlimit="10"/><path stroke-linecap="butt" transform="matrix(0.132204, 0, 0, 0.13213, 51.872927, 50.358109)" fill-opacity="1" fill="#e5e1d3" fill-rule="nonzero" stroke-linejoin="miter" d="M 193.579662 1443.188997 C 229.627297 1463.617483 265.26127 1484.696369 300.71796 1506.041329 C 318.475852 1516.625118 336.086008 1527.474979 353.814353 1538.206586 L 406.64482 1570.756171 L 459.268458 1603.690084 C 476.730877 1614.806018 494.281939 1625.803698 511.655717 1637.037887 C 546.491915 1659.358447 581.180376 1681.974644 615.425629 1705.211678 C 579.407542 1684.812755 543.773568 1663.733869 508.316878 1642.388909 C 490.529439 1631.80512 472.919283 1620.955259 455.220485 1610.223652 L 402.390018 1577.644503 L 349.766381 1544.71059 C 332.303961 1533.62422 314.782447 1522.62654 297.408669 1511.39235 C 262.542924 1489.042227 227.854462 1466.455594 193.579662 1443.188997 Z M 193.579662 1443.188997 " stroke="#000000" stroke-width="1" stroke-opacity="1" stroke-miterlimit="10"/><path stroke-linecap="butt" transform="matrix(0.132204, 0, 0, 0.13213, 51.872927, 50.358109)" fill-opacity="1" fill="#e5e1d3" fill-rule="nonzero" stroke-linejoin="miter" d="M 195.441138 1490.490846 C 231.488773 1510.919332 267.122746 1531.998219 302.579436 1553.343178 C 320.337328 1563.926967 337.947484 1574.776828 355.646282 1585.508435 L 408.506297 1618.05802 L 461.129934 1650.991933 C 478.592354 1662.107867 496.143415 1673.075984 513.517193 1684.339737 C 548.353391 1706.660297 583.041852 1729.24693 617.287105 1752.513527 C 581.269018 1732.114604 545.635045 1711.035718 510.178355 1689.690758 C 492.390915 1679.10697 474.780759 1668.257108 457.081962 1657.525501 L 404.251494 1624.946352 L 351.627857 1592.01244 C 334.165437 1580.896505 316.643923 1569.928389 299.270145 1558.6942 C 264.4044 1536.344076 229.715938 1513.757443 195.441138 1490.490846 Z M 195.441138 1490.490846 " stroke="#000000" stroke-width="1" stroke-opacity="1" stroke-miterlimit="10"/><path stroke-linecap="butt" transform="matrix(0.132204, 0, 0, 0.13213, 51.872927, 50.358109)" fill-opacity="1" fill="#e5e1d3" fill-rule="nonzero" stroke-linejoin="miter" d="M 721.382037 1663.024341 C 813.68762 1637.392651 906.406863 1613.327835 999.244296 1589.824729 C 1045.633465 1577.94014 1092.140824 1566.587696 1138.589087 1554.998743 L 1278.140709 1521.030102 L 1417.928709 1487.918808 L 1522.88051 1463.617483 L 1557.923539 1455.694423 C 1651.292822 1434.497282 1744.809841 1413.86185 1838.710975 1394.793292 C 1746.405392 1420.424982 1653.686149 1444.489798 1560.848716 1467.992904 L 1526.042065 1476.832437 L 1491.205867 1485.524152 L 1421.503925 1502.848454 L 1281.922756 1536.787531 L 1142.164303 1569.869262 C 1095.509209 1580.630432 1048.913209 1591.628112 1002.169473 1602.093646 C 908.80019 1623.290787 815.253623 1643.926219 721.382037 1663.024341 Z M 721.382037 1663.024341 " stroke="#000000" stroke-width="1" stroke-opacity="1" stroke-miterlimit="10"/><path stroke-linecap="butt" transform="matrix(0.132204, 0, 0, 0.13213, 51.872927, 50.358109)" fill-opacity="1" fill="#e5e1d3" fill-rule="nonzero" stroke-linejoin="miter" d="M 721.382037 1705.773387 C 813.68762 1680.141697 906.406863 1656.076882 999.244296 1632.573775 C 1045.633465 1620.689186 1092.140824 1609.336742 1138.589087 1597.747789 L 1278.140709 1563.779148 L 1417.928709 1530.667854 L 1522.88051 1506.366529 L 1557.923539 1498.443469 C 1651.292822 1477.246328 1744.809841 1456.610896 1838.710975 1437.542338 C 1746.405392 1463.174028 1653.686149 1487.238844 1560.848716 1510.74195 L 1526.042065 1519.581483 L 1491.205867 1528.273198 L 1421.503925 1545.5975 L 1281.922756 1579.536577 L 1142.164303 1612.618308 C 1095.509209 1623.379478 1048.913209 1634.377158 1002.169473 1644.842692 C 908.80019 1666.01027 815.253623 1686.675265 721.382037 1705.773387 Z M 721.382037 1705.773387 " stroke="#000000" stroke-width="1" stroke-opacity="1" stroke-miterlimit="10"/><path stroke-linecap="butt" transform="matrix(0.132204, 0, 0, 0.13213, 51.872927, 50.358109)" fill-opacity="1" fill="#e5e1d3" fill-rule="nonzero" stroke-linejoin="miter" d="M 721.382037 1753.163927 C 813.68762 1727.532238 906.406863 1703.467422 999.244296 1679.964316 C 1045.633465 1668.079726 1092.140824 1656.727282 1138.589087 1645.138329 L 1278.140709 1611.169689 L 1417.928709 1578.058394 L 1522.88051 1553.757069 L 1557.923539 1545.834009 C 1651.292822 1524.636868 1744.809841 1504.001437 1838.710975 1484.932879 C 1746.405392 1510.564568 1653.686149 1534.629384 1560.848716 1558.13249 L 1526.042065 1566.972023 L 1491.205867 1575.663738 L 1421.503925 1592.98804 L 1281.922756 1626.927117 L 1142.164303 1660.008848 C 1095.509209 1670.740455 1048.913209 1681.767699 1002.169473 1692.203669 C 908.80019 1713.40081 815.253623 1734.036242 721.382037 1753.163927 Z M 721.382037 1753.163927 " stroke="#000000" stroke-width="1" stroke-opacity="1" stroke-miterlimit="10"/><path stroke-linecap="butt" transform="matrix(0.132204, 0, 0, 0.13213, 51.872927, 50.358109)" fill-opacity="1" fill="#f04d6e" fill-rule="nonzero" stroke-linejoin="miter" d="M 1588.416292 1460.572426 L 1675.078351 1438.724885 C 1675.078351 1438.724885 1688.108685 1488.450954 1676.023863 1528.391453 L 1642.812764 1500.512925 L 1611.669971 1542.108989 C 1611.669971 1542.108989 1611.433593 1477.778474 1588.416292 1460.572426 Z M 1588.416292 1460.572426 " stroke="#000000" stroke-width="1" stroke-opacity="1" stroke-miterlimit="10"/><path stroke-linecap="butt" transform="matrix(0.132204, 0, 0, 0.13213, 51.872927, 50.358109)" fill-opacity="1" fill="#f04d6e" fill-rule="nonzero" stroke-linejoin="miter" d="M 1041.290021 1633.135485 L 1128.365742 1613.475654 C 1128.365742 1613.475654 1141.366528 1662.344377 1129.281706 1702.314439 L 1096.070607 1674.435912 L 1064.927814 1716.002412 C 1064.927814 1716.031976 1064.277775 1650.341532 1041.290021 1633.135485 Z M 1041.290021 1633.135485 " stroke="#000000" stroke-width="1" stroke-opacity="1" stroke-miterlimit="10"/><path stroke-linecap="butt" transform="matrix(0.132204, 0, 0, 0.13213, 51.872927, 50.358109)" fill-opacity="1" fill="#ffffff" fill-rule="nonzero" stroke-linejoin="miter" d="M 1887.729849 1002.897472 L 1896.446285 1220.042523 L 1390.331585 1522.62654 C 1390.331585 1522.62654 1319.447753 1466.928612 1366.398319 1320.115498 Z M 1887.729849 1002.897472 " stroke="#000000" stroke-width="1" stroke-opacity="1" stroke-miterlimit="10"/><path stroke-linecap="butt" transform="matrix(0.132204, 0, 0, 0.13213, 51.872927, 50.358109)" fill-opacity="1" fill="#55c1ae" fill-rule="nonzero" stroke-linejoin="miter" d="M 1892.900616 985.514042 L 1353.7521 1313.345421 L 87.150498 1012.623914 L 653.393834 714.592701 Z M 1892.900616 985.514042 " stroke="#000000" stroke-width="1" stroke-opacity="1" stroke-miterlimit="10"/><g mask="url(#272e3d9bd1)"><g transform="matrix(1, 0, 0, 1, 78, 149)"><g clip-path="url(#3c998420d3)"><path fill="#07b28f" d="M 151.789062 69.394531 C 151.699219 69.394531 151.609375 69.382812 151.519531 69.363281 L 2.773438 34.0625 C 2.300781 33.953125 1.945312 33.554688 1.882812 33.070312 C 1.824219 32.589844 2.070312 32.117188 2.5 31.890625 L 60.601562 1.328125 C 60.847656 1.199219 61.128906 1.160156 61.398438 1.21875 L 207.789062 33.199219 C 208.257812 33.300781 208.617188 33.679688 208.695312 34.152344 C 208.773438 34.625 208.558594 35.097656 208.148438 35.34375 L 152.398438 69.222656 C 152.214844 69.335938 152.003906 69.394531 151.789062 69.394531 Z M 6.355469 32.507812 L 151.59375 66.972656 L 204.429688 34.863281 L 61.3125 3.597656 Z M 6.355469 32.507812 " fill-opacity="1" fill-rule="nonzero"/><g clip-path="url(#9892f08e64)"><path stroke-linecap="butt" transform="matrix(0.132204, 0, 0, 0.13213, -26.127073, -98.641891)" fill="none" stroke-linejoin="miter" d="M 1345.774341 1271.749357 C 1345.094755 1271.749357 1344.415168 1271.660666 1343.735581 1271.512848 L 218.606172 1004.346091 C 215.030956 1003.518308 212.342157 1000.502816 211.869401 996.836922 C 211.426192 993.200593 213.287668 989.62339 216.537865 987.908698 L 656.023535 756.602656 C 657.885011 755.627055 660.012413 755.331418 662.051172 755.774873 L 1769.363595 997.812523 C 1772.909264 998.581178 1775.627611 1001.448852 1776.218556 1005.026055 C 1776.8095 1008.603257 1775.184402 1012.18046 1772.081942 1014.04297 L 1350.383711 1270.448556 C 1348.99499 1271.305902 1347.399439 1271.749357 1345.774341 1271.749357 Z M 245.700992 992.579756 L 1344.296979 1253.41989 L 1743.952968 1010.40664 L 661.401133 773.77914 Z M 245.700992 992.579756 " stroke="#000000" stroke-width="1" stroke-opacity="1" stroke-miterlimit="10"/></g></g></g></g><path stroke-linecap="butt" transform="matrix(0.132204, 0, 0, 0.13213, 51.872927, 50.358109)" fill-opacity="1" fill="#00b59c" fill-rule="nonzero" stroke-linejoin="miter" d="M 87.150498 1012.623914 C 87.150498 1012.623914 32.044892 1178.77166 97.078371 1234.794787 C 162.082302 1290.758788 1364.595938 1565.316459 1364.595938 1565.316459 L 1922.300121 1240.323191 L 1923.156991 1204.078149 L 1390.331585 1522.62654 C 1390.331585 1522.62654 1352.392927 1496.906159 1353.7521 1429.175824 C 1355.111273 1361.445489 1366.398319 1320.115498 1366.398319 1320.115498 L 1887.700301 1002.897472 L 1891.600537 985.218405 L 1353.7521 1313.345421 Z M 87.150498 1012.623914 " stroke="#000000" stroke-width="1" stroke-opacity="1" stroke-miterlimit="10"/><path stroke-linecap="butt" transform="matrix(0.132204, 0, 0, 0.13213, 51.872927, 50.358109)" fill-opacity="1" fill="#039e84" fill-rule="nonzero" stroke-linejoin="miter" d="M 1923.156991 1204.078149 L 1895.796246 1204.078149 L 1896.446285 1220.042523 Z M 1923.156991 1204.078149 " stroke="#000000" stroke-width="1" stroke-opacity="1" stroke-miterlimit="10"/><path stroke-linecap="butt" transform="matrix(0.132204, 0, 0, 0.13213, 51.872927, 50.358109)" fill-opacity="1" fill="#65c5b3" fill-rule="nonzero" stroke-linejoin="miter" d="M 288.92861 1060.517037 C 288.92861 1060.517037 200.493716 1221.402451 290.524161 1301.106067 L 337.681559 1314.202767 C 337.681559 1314.202767 259.174538 1220.160778 359.132856 1077.190939 Z M 288.92861 1060.517037 " stroke="#000000" stroke-width="1" stroke-opacity="1" stroke-miterlimit="10"/><path stroke-linecap="butt" transform="matrix(0.132204, 0, 0, 0.13213, 51.872927, 50.358109)" fill-opacity="1" fill="#65c5b3" fill-rule="nonzero" stroke-linejoin="miter" d="M 397.514723 1086.266981 C 397.514723 1086.266981 309.079829 1251.054798 399.139821 1330.758414 L 447.094994 1343.411659 C 447.094994 1343.411659 367.760651 1245.881158 467.718969 1102.940883 Z M 397.514723 1086.266981 " stroke="#000000" stroke-width="1" stroke-opacity="1" stroke-miterlimit="10"/><path stroke-linecap="butt" transform="matrix(0.132204, 0, 0, 0.13213, 51.872927, 50.358109)" fill-opacity="1" fill="#65c5b3" fill-rule="nonzero" stroke-linejoin="miter" d="M 923.89883 1210.700408 C 923.89883 1210.700408 836.527637 1382.849575 926.558082 1462.553191 L 973.685932 1473.816944 C 973.685932 1473.816944 894.115211 1370.344149 994.073529 1227.37431 Z M 923.89883 1210.700408 " stroke="#000000" stroke-width="1" stroke-opacity="1" stroke-miterlimit="10"/><path stroke-linecap="butt" transform="matrix(0.132204, 0, 0, 0.13213, 51.872927, 50.358109)" fill-opacity="1" fill="#65c5b3" fill-rule="nonzero" stroke-linejoin="miter" d="M 1032.484943 1236.450352 C 1032.484943 1236.450352 944.936466 1408.68821 1034.996458 1488.42139 L 1083.040273 1499.773834 C 1083.040273 1499.773834 1002.701324 1396.064529 1102.659642 1253.124254 Z M 1032.484943 1236.450352 " stroke="#000000" stroke-width="1" stroke-opacity="1" stroke-miterlimit="10"/><path stroke-linecap="butt" transform="matrix(0.132204, 0, 0, 0.13213, 51.872927, 50.358109)" fill-opacity="1" fill="#e5e1d3" fill-rule="nonzero" stroke-linejoin="miter" d="M 1874.492684 1060.250964 C 1836.819951 1087.686036 1798.201707 1113.67249 1759.258443 1139.097234 C 1739.875452 1151.957424 1720.167442 1164.255905 1700.607168 1176.850022 L 1641.453591 1213.745464 L 1581.768163 1249.842688 C 1561.705586 1261.579459 1541.820292 1273.611867 1521.580432 1285.053002 C 1481.307542 1308.290035 1440.680084 1330.965359 1399.136663 1352.132937 C 1436.809396 1324.668301 1475.427641 1298.711411 1514.341358 1273.257103 C 1533.724348 1260.396913 1553.461905 1248.098432 1572.992632 1235.533879 L 1632.175757 1198.638436 L 1691.861185 1162.570776 C 1711.923762 1150.834005 1731.809055 1138.831161 1752.048916 1127.360462 C 1792.351353 1104.152993 1832.97881 1081.448105 1874.492684 1060.250964 Z M 1874.492684 1060.250964 " stroke="#000000" stroke-width="1" stroke-opacity="1" stroke-miterlimit="10"/><path stroke-linecap="butt" transform="matrix(0.132204, 0, 0, 0.13213, 51.872927, 50.358109)" fill-opacity="1" fill="#e5e1d3" fill-rule="nonzero" stroke-linejoin="miter" d="M 1868.080933 1171.912892 C 1830.378653 1199.377528 1791.789955 1225.334417 1752.846691 1250.759161 C 1733.463701 1263.619352 1713.755691 1275.917832 1694.195417 1288.51195 L 1635.041839 1325.407392 L 1575.356411 1361.504616 C 1555.293834 1373.241387 1535.408541 1385.273795 1515.16868 1396.744493 C 1474.89579 1419.951963 1434.268333 1442.627287 1392.724912 1463.824428 C 1430.397644 1436.330229 1469.015889 1410.373339 1507.929606 1384.948595 C 1527.312597 1372.088405 1547.050154 1359.789924 1566.580881 1347.195806 L 1625.764005 1310.329928 L 1685.449433 1274.262268 C 1705.51201 1262.495933 1725.397304 1250.493088 1745.637164 1239.02239 C 1785.939602 1215.81492 1826.537511 1193.110033 1868.080933 1171.912892 Z M 1868.080933 1171.912892 " stroke="#000000" stroke-width="1" stroke-opacity="1" stroke-miterlimit="10"/><path stroke-linecap="butt" transform="matrix(0.132204, 0, 0, 0.13213, 51.872927, 50.358109)" fill-opacity="1" fill="#e5e1d3" fill-rule="nonzero" stroke-linejoin="miter" d="M 1869.883315 1116.835801 C 1831.471901 1143.088327 1792.646825 1168.720017 1753.437636 1193.730869 C 1714.317088 1218.859977 1674.841974 1243.397811 1635.278217 1267.817391 C 1595.625819 1292.059588 1555.884779 1316.153968 1515.759625 1339.686638 C 1475.75266 1363.337562 1435.332034 1386.36765 1394.527293 1408.717774 C 1432.938707 1382.435684 1471.734235 1356.803995 1510.943425 1331.822705 C 1550.063973 1306.693598 1589.539087 1282.155764 1629.102844 1257.736184 C 1668.784789 1233.52355 1708.525829 1209.399607 1748.650983 1185.896501 C 1788.657948 1162.216012 1829.078574 1139.215488 1869.883315 1116.835801 Z M 1869.883315 1116.835801 " stroke="#000000" stroke-width="1" stroke-opacity="1" stroke-miterlimit="10"/><path stroke-linecap="butt" transform="matrix(0.132204, 0, 0, 0.13213, 51.872927, 50.358109)" fill-opacity="1" fill="#ffffff" fill-rule="nonzero" stroke-linejoin="miter" d="M 1914.70648 963.843882 L 1911.131264 795.449299 L 699.812551 1073.820682 L 237.575504 801.568976 C 237.575504 801.568976 227.529442 793.054643 218.901648 797.0753 C 210.303401 801.095957 209.594267 808.664253 209.594267 808.664253 L 203.212063 946.84478 C 203.212063 946.84478 202.355193 955.713877 208.766944 959.764098 C 215.208243 963.843882 688.673241 1260.278659 688.673241 1260.278659 Z M 1914.70648 963.843882 " stroke="#000000" stroke-width="1" stroke-opacity="1" stroke-miterlimit="10"/><path stroke-linecap="butt" transform="matrix(0.132204, 0, 0, 0.13213, 51.872927, 50.358109)" fill-opacity="1" fill="#fecf09" fill-rule="nonzero" stroke-linejoin="miter" d="M 1333.541787 439.798521 L 1928.386853 741.466064 L 704.776487 1033.554983 L 188.142969 723.195725 Z M 1333.541787 439.798521 " stroke="#000000" stroke-width="1" stroke-opacity="1" stroke-miterlimit="10"/><g mask="url(#1e7884da78)"><g transform="matrix(1, 0, 0, 1, 89, 112)"><g clip-path="url(#e0b88ef03b)"><g clip-path="url(#e70d66fba0)"><path fill="#f9a11b" d="M 56.929688 70.011719 C 56.785156 70.011719 56.640625 69.972656 56.515625 69.894531 L 1.207031 36.6875 C 0.929688 36.523438 0.777344 36.203125 0.828125 35.882812 C 0.875 35.5625 1.113281 35.300781 1.429688 35.222656 L 138.328125 1.367188 C 138.515625 1.320312 138.714844 1.34375 138.886719 1.429688 L 202.738281 33.792969 C 203.035156 33.945312 203.210938 34.265625 203.171875 34.601562 C 203.132812 34.9375 202.886719 35.210938 202.558594 35.289062 L 57.117188 69.988281 C 57.054688 70.003906 56.992188 70.011719 56.929688 70.011719 Z M 3.703125 36.3125 L 57.0625 68.347656 L 200.058594 34.234375 L 138.425781 2.996094 Z M 3.703125 36.3125 " fill-opacity="1" fill-rule="nonzero"/></g><g clip-path="url(#7bba2f5337)"><path stroke-linecap="butt" transform="matrix(0.132204, 0, 0, 0.13213, -37.127073, -61.641891)" fill="none" stroke-linejoin="miter" d="M 711.45416 996.393467 C 710.360912 996.393467 709.267664 996.097831 708.322153 995.506558 L 289.96276 744.18592 C 287.864906 742.944247 286.712563 740.520027 287.096678 738.095807 C 287.451245 735.671587 289.253626 733.690822 291.646953 733.099549 L 1327.159579 476.871345 C 1328.577847 476.516581 1330.084756 476.693963 1331.384834 477.344363 L 1814.364044 722.279251 C 1816.609635 723.432234 1817.939261 725.856454 1817.643788 728.398928 C 1817.348316 730.941402 1815.486839 733.010858 1813.004871 733.602131 L 712.872428 996.216085 C 712.399672 996.33434 711.926916 996.393467 711.45416 996.393467 Z M 308.843447 741.347809 L 712.458766 983.79935 L 1794.094637 725.619944 L 1327.89826 489.199389 Z M 308.843447 741.347809 " stroke="#000000" stroke-width="1" stroke-opacity="1" stroke-miterlimit="10"/></g></g></g></g><path fill="#f9a11b" d="M 308.179688 176.945312 L 308.179688 183.363281 L 143.65625 224.492188 L 73.832031 179.628906 C 73.832031 179.628906 68.78125 161.9375 76.746094 145.914062 L 145.046875 186.921875 L 306.8125 148.328125 L 306.8125 154.941406 L 144.390625 192.242188 L 82.519531 155.820312 C 81.246094 155.066406 79.625 155.9375 79.558594 157.417969 L 78.730469 175.625 C 78.703125 176.277344 79.027344 176.898438 79.582031 177.246094 L 142.917969 216.878906 Z M 308.179688 176.945312 " fill-opacity="1" fill-rule="nonzero"/><g clip-path="url(#2ee195618e)"><path stroke-linecap="butt" transform="matrix(0.132204, 0, 0, 0.13213, 51.872927, 50.358109)" fill="none" stroke-linejoin="miter" d="M 1938.728387 958.049406 L 1938.728387 1006.622492 L 694.257669 1317.898224 L 166.100727 978.359637 C 166.100727 978.359637 127.896144 844.46584 188.142969 723.195725 L 704.776487 1033.554983 L 1928.386853 741.466064 L 1928.386853 791.517333 L 699.812551 1073.820682 L 231.813792 798.169156 C 222.181392 792.46337 209.919286 799.056065 209.416983 810.260691 L 203.152968 948.05689 C 202.946137 952.994021 205.398558 957.694642 209.594267 960.325807 L 688.673241 1260.278659 Z M 1938.728387 958.049406 " stroke="#000000" stroke-width="1" stroke-opacity="1" stroke-miterlimit="10"/></g><g mask="url(#500736b35b)"><g transform="matrix(1, 0, 0, 1, 142, 154)"><g clip-path="url(#8c191b44de)"><g clip-path="url(#347cb03cd0)"><path fill="#f9a11b" d="M 0.917969 62.878906 L 2.390625 38.242188 L 162.53125 1.464844 L 163.003906 23.710938 Z M 0.917969 62.878906 " fill-opacity="1" fill-rule="nonzero"/></g><g clip-path="url(#3f15e2634f)"><path stroke-linecap="butt" transform="matrix(0.132204, 0, 0, 0.13213, -90.127069, -103.641891)" fill="none" stroke-linejoin="miter" d="M 688.673204 1260.278659 L 699.812514 1073.820682 L 1911.131228 795.478863 L 1914.706444 963.843882 Z M 688.673204 1260.278659 " stroke="#000000" stroke-width="1" stroke-opacity="1" stroke-miterlimit="10"/></g></g></g></g><path fill="#e98d24" d="M 308.179688 176.945312 L 304.953125 175.199219 L 305.003906 177.710938 Z M 308.179688 176.945312 " fill-opacity="1" fill-rule="nonzero"/><g clip-path="url(#7029c7e95d)"><path stroke-linecap="butt" transform="matrix(0.132204, 0, 0, 0.13213, 51.872927, 50.358109)" fill="none" stroke-linejoin="miter" d="M 1938.728387 958.049406 L 1914.322366 944.834452 L 1914.70648 963.843882 Z M 1938.728387 958.049406 " stroke="#000000" stroke-width="1" stroke-opacity="1" stroke-miterlimit="10"/></g><path stroke-linecap="butt" transform="matrix(0.132204, 0, 0, 0.13213, 51.872927, 50.358109)" fill-opacity="1" fill="#e98d24" fill-rule="nonzero" stroke-linejoin="miter" d="M 1928.386853 791.487769 L 1911.219906 798.937811 L 1911.131264 795.478863 Z M 1928.386853 791.487769 " stroke="#000000" stroke-width="1" stroke-opacity="1" stroke-miterlimit="10"/><path stroke-linecap="butt" transform="matrix(0.132204, 0, 0, 0.13213, 51.872927, 50.358109)" fill-opacity="1" fill="#fce586" fill-rule="nonzero" stroke-linejoin="miter" d="M 1291.584704 528.637306 L 1612.231369 704.866258 L 1489.846694 747.910941 L 1186.396524 557.195798 Z M 1291.584704 528.637306 " stroke="#000000" stroke-width="1" stroke-opacity="1" stroke-miterlimit="10"/><path stroke-linecap="butt" transform="matrix(0.132204, 0, 0, 0.13213, 51.872927, 50.358109)" fill-opacity="1" fill="#fce586" fill-rule="nonzero" stroke-linejoin="miter" d="M 1090.042969 592.435675 L 1393.847707 772.921794 L 1381.526507 780.105762 L 1078.076337 598.466661 Z M 1090.042969 592.435675 " stroke="#000000" stroke-width="1" stroke-opacity="1" stroke-miterlimit="10"/><path stroke-linecap="butt" transform="matrix(0.132204, 0, 0, 0.13213, 51.872927, 50.358109)" fill-opacity="1" fill="#e5e1d3" fill-rule="nonzero" stroke-linejoin="miter" d="M 235.241272 839.351328 C 271.25936 859.779814 306.893333 880.858701 342.350023 902.20366 C 360.107915 912.787449 377.747618 923.637311 395.446416 934.368918 L 448.276884 966.918503 L 500.900521 999.852415 C 518.362941 1010.96835 535.914002 1021.936466 553.28778 1033.200219 C 588.123978 1055.520779 622.812439 1078.107412 657.08724 1101.374009 C 621.039605 1080.975086 585.405632 1059.8962 549.948942 1038.55124 C 532.161502 1027.967452 514.551346 1017.11759 496.852549 1006.385983 L 444.022081 973.806834 L 391.398444 940.872922 C 373.936024 929.756987 356.41451 918.788871 339.040732 907.554682 C 304.204534 885.204558 269.486525 862.617925 235.241272 839.351328 Z M 235.241272 839.351328 " stroke="#000000" stroke-width="1" stroke-opacity="1" stroke-miterlimit="10"/><path stroke-linecap="butt" transform="matrix(0.132204, 0, 0, 0.13213, 51.872927, 50.358109)" fill-opacity="1" fill="#e5e1d3" fill-rule="nonzero" stroke-linejoin="miter" d="M 233.379796 884.968049 C 269.397884 905.396535 305.031857 926.475422 340.488547 947.820381 C 358.246439 958.40417 375.886142 969.254031 393.58494 979.985638 L 446.415407 1012.535223 L 499.039045 1045.469136 C 516.501464 1056.58507 534.052526 1067.58275 551.426304 1078.81694 C 586.262502 1101.1375 620.950963 1123.753696 655.225763 1146.99073 C 619.178129 1126.591807 583.573703 1105.512921 548.087466 1084.167961 C 530.300026 1073.584173 512.68987 1062.734311 494.991073 1052.002704 L 442.160605 1019.423555 L 389.536968 986.489643 C 372.104095 975.403272 354.553034 964.405592 337.179256 953.171403 C 302.343058 930.821279 267.654596 908.234646 233.379796 884.968049 Z M 233.379796 884.968049 " stroke="#000000" stroke-width="1" stroke-opacity="1" stroke-miterlimit="10"/><path stroke-linecap="butt" transform="matrix(0.132204, 0, 0, 0.13213, 51.872927, 50.358109)" fill-opacity="1" fill="#e5e1d3" fill-rule="nonzero" stroke-linejoin="miter" d="M 235.241272 932.269898 C 271.25936 952.698384 306.893333 973.777271 342.350023 995.12223 C 360.107915 1005.706019 377.747618 1016.555881 395.446416 1027.287488 L 448.276884 1059.837073 L 500.900521 1092.770985 C 518.362941 1103.88692 535.914002 1114.8846 553.28778 1126.118789 C 588.123978 1148.439349 622.812439 1171.025982 657.08724 1194.292579 C 621.039605 1173.893656 585.405632 1152.81477 549.948942 1131.46981 C 532.161502 1120.886022 514.551346 1110.03616 496.852549 1099.304553 L 444.022081 1066.725404 L 391.398444 1033.791492 C 373.936024 1022.675557 356.41451 1011.707441 339.040732 1000.473252 C 304.204534 978.123128 269.486525 955.536495 235.241272 932.269898 Z M 235.241272 932.269898 " stroke="#000000" stroke-width="1" stroke-opacity="1" stroke-miterlimit="10"/><path stroke-linecap="butt" transform="matrix(0.132204, 0, 0, 0.13213, 51.872927, 50.358109)" fill-opacity="1" fill="#e5e1d3" fill-rule="nonzero" stroke-linejoin="miter" d="M 761.152624 1104.803393 C 853.487754 1079.171703 946.17745 1055.106888 1039.014883 1031.603781 C 1085.404053 1019.719192 1131.911411 1008.366748 1178.359674 996.777795 L 1317.940843 962.809154 L 1457.699296 929.69786 L 1562.651097 905.396535 L 1597.694126 897.473475 C 1691.092956 876.276334 1784.609976 855.640902 1878.511109 836.572344 C 1786.17598 862.204034 1693.456736 886.26885 1600.64885 909.771956 L 1565.8422 918.611489 L 1530.976455 927.303204 L 1461.274512 944.627506 L 1321.72289 978.566583 L 1181.934891 1011.648314 C 1135.279796 1022.409484 1088.683796 1033.407164 1041.969607 1043.872698 C 948.570777 1065.06984 855.053758 1085.705271 761.152624 1104.803393 Z M 761.152624 1104.803393 " stroke="#000000" stroke-width="1" stroke-opacity="1" stroke-miterlimit="10"/><path stroke-linecap="butt" transform="matrix(0.132204, 0, 0, 0.13213, 51.872927, 50.358109)" fill-opacity="1" fill="#e5e1d3" fill-rule="nonzero" stroke-linejoin="miter" d="M 761.152624 1147.552439 C 853.487754 1121.92075 946.17745 1097.855934 1039.014883 1074.352828 C 1085.404053 1062.468238 1131.911411 1051.115794 1178.359674 1039.526841 L 1317.940843 1005.558201 L 1457.699296 972.446906 L 1562.651097 948.145581 L 1597.694126 940.222521 C 1691.092956 919.02538 1784.609976 898.389949 1878.511109 879.321391 C 1786.17598 904.95308 1693.456736 929.017896 1600.64885 952.521002 L 1565.8422 961.360535 L 1530.976455 970.05225 L 1461.274512 987.376552 L 1321.72289 1021.315629 L 1181.934891 1054.39736 C 1135.279796 1065.158531 1088.683796 1076.156211 1041.969607 1086.621745 C 948.570777 1107.789322 855.053758 1128.454318 761.152624 1147.552439 Z M 761.152624 1147.552439 " stroke="#000000" stroke-width="1" stroke-opacity="1" stroke-miterlimit="10"/><path stroke-linecap="butt" transform="matrix(0.132204, 0, 0, 0.13213, 51.872927, 50.358109)" fill-opacity="1" fill="#e5e1d3" fill-rule="nonzero" stroke-linejoin="miter" d="M 761.152624 1194.942979 C 853.487754 1169.31129 946.17745 1145.246474 1039.014883 1121.743368 C 1085.404053 1109.858778 1131.911411 1098.506334 1178.359674 1086.917381 L 1317.940843 1052.948741 L 1457.699296 1019.837446 L 1562.651097 995.536121 L 1597.694126 987.613062 C 1691.092956 966.41592 1784.609976 945.780489 1878.511109 926.711931 C 1786.17598 952.34362 1693.456736 976.408436 1600.64885 999.911542 L 1565.8422 1008.751075 L 1530.976455 1017.44279 L 1461.274512 1034.767093 L 1321.72289 1068.706169 L 1181.934891 1101.7879 C 1135.279796 1112.549071 1088.683796 1123.546751 1041.969607 1134.012285 C 948.570777 1155.179862 855.053758 1175.815294 761.152624 1194.942979 Z M 761.152624 1194.942979 " stroke="#000000" stroke-width="1" stroke-opacity="1" stroke-miterlimit="10"/><path stroke-linecap="butt" transform="matrix(0.132204, 0, 0, 0.13213, 51.872927, 50.358109)" fill-opacity="1" fill="#f04d6e" fill-rule="nonzero" stroke-linejoin="miter" d="M 1628.186879 902.351478 L 1714.878486 880.503937 C 1714.878486 880.503937 1727.879272 930.230006 1715.79445 970.170505 L 1682.583351 942.291977 L 1651.440558 983.888041 C 1651.470105 983.888041 1651.20418 919.557526 1628.186879 902.351478 Z M 1628.186879 902.351478 " stroke="#000000" stroke-width="1" stroke-opacity="1" stroke-miterlimit="10"/><path stroke-linecap="butt" transform="matrix(0.132204, 0, 0, 0.13213, 51.872927, 50.358109)" fill-opacity="1" fill="#f04d6e" fill-rule="nonzero" stroke-linejoin="miter" d="M 1081.060608 1074.944101 L 1168.136329 1055.254706 C 1168.136329 1055.254706 1181.137115 1104.123429 1169.052293 1144.093491 L 1135.841194 1116.214964 L 1104.698401 1157.781464 C 1104.698401 1157.811028 1104.048362 1092.120585 1081.060608 1074.944101 Z M 1081.060608 1074.944101 " stroke="#000000" stroke-width="1" stroke-opacity="1" stroke-miterlimit="10"/><path stroke-linecap="butt" transform="matrix(0.132204, 0, 0, 0.13213, 51.872927, 50.358109)" fill-opacity="1" fill="#ffffff" fill-rule="nonzero" stroke-linejoin="miter" d="M 161.46181 654.282843 L 166.278011 485.917824 L 1375.49887 773.246994 L 1839.745128 504.454236 C 1839.745128 504.454236 1849.879832 496.028594 1858.448532 500.108378 C 1867.017232 504.188163 1867.696819 511.756459 1867.696819 511.756459 L 1873.04487 649.966549 C 1873.04487 649.966549 1873.842645 658.835646 1867.371799 662.856303 C 1860.930501 666.87696 1385.279007 959.793662 1385.279007 959.793662 Z M 161.46181 654.282843 " stroke="#000000" stroke-width="1" stroke-opacity="1" stroke-miterlimit="10"/><g clip-path="url(#5dcaf6623d)"><path fill="#f0536d" d="M 150.566406 68.136719 L 71.628906 107.410156 L 233.105469 147.203125 L 301.707031 106.707031 Z M 150.566406 68.136719 " fill-opacity="1" fill-rule="nonzero"/></g><g clip-path="url(#6e7ae2138a)"><path stroke-linecap="butt" transform="matrix(0.132204, 0, 0, 0.13213, 51.872927, 50.358109)" fill="none" stroke-linejoin="miter" d="M 746.52674 134.553775 L 149.436083 431.78677 L 1370.859953 732.951731 L 1889.768608 426.465312 Z M 746.52674 134.553775 " stroke="#000000" stroke-width="1" stroke-opacity="1" stroke-miterlimit="10"/></g><g mask="url(#db4b27b7bf)"><g transform="matrix(1, 0, 0, 1, 85, 72)"><g clip-path="url(#43c7001f70)"><path fill="#ffffff" d="M 147.257812 70.285156 C 147.402344 70.285156 147.546875 70.246094 147.671875 70.171875 L 203.226562 37.378906 C 203.503906 37.210938 203.65625 36.894531 203.613281 36.574219 C 203.566406 36.25 203.332031 35.988281 203.015625 35.910156 L 66.371094 1.039062 C 66.183594 0.992188 65.984375 1.011719 65.8125 1.097656 L 1.722656 32.984375 C 1.421875 33.136719 1.246094 33.457031 1.285156 33.792969 C 1.320312 34.125 1.5625 34.402344 1.890625 34.484375 L 147.070312 70.261719 C 147.132812 70.277344 147.195312 70.285156 147.257812 70.285156 Z M 200.730469 36.984375 L 147.136719 68.625 L 4.398438 33.445312 L 66.261719 2.671875 Z M 200.730469 36.984375 " fill-opacity="1" fill-rule="nonzero"/><g clip-path="url(#b22e70900e)"><path stroke-linecap="butt" transform="matrix(0.132204, 0, 0, 0.13213, -33.127073, -21.641891)" fill="none" stroke-linejoin="miter" d="M 1364.448198 695.731088 C 1365.541446 695.731088 1366.634694 695.435452 1367.580205 694.873742 L 1787.801074 446.686852 C 1789.898928 445.415615 1791.051271 443.020959 1790.726251 440.596739 C 1790.371684 438.142956 1788.59885 436.162191 1786.205523 435.570918 L 752.613468 171.656163 C 751.1952 171.301399 749.688291 171.449217 748.388212 172.099618 L 263.606621 413.42774 C 261.331483 414.580722 260.001857 417.004942 260.29733 419.547416 C 260.563255 422.060327 262.395184 424.159347 264.877152 424.780183 L 1363.02993 695.553706 C 1363.502686 695.671961 1363.975442 695.731088 1364.448198 695.731088 Z M 1768.920387 443.700923 L 1363.532233 683.166535 L 283.846481 416.916251 L 751.786145 184.013771 Z M 1768.920387 443.700923 " stroke="#000000" stroke-width="1" stroke-opacity="1" stroke-miterlimit="10"/></g></g></g></g><path stroke-linecap="butt" transform="matrix(0.132204, 0, 0, 0.13213, 51.872927, 50.358109)" fill-opacity="1" fill="#ed184a" fill-rule="nonzero" stroke-linejoin="miter" d="M 137.46945 648.281421 L 137.114883 696.854507 L 1379.251369 1017.383663 L 1909.919827 681.777043 C 1909.919827 681.777043 1949.099469 548.178883 1889.768608 426.465312 L 1370.830406 732.951731 L 149.436083 431.78677 L 149.081516 481.838039 L 1375.49887 773.246994 L 1845.536388 501.083979 C 1855.198336 495.437321 1867.430894 502.148271 1867.844555 513.352896 L 1873.074417 651.178659 C 1873.2517 656.11579 1870.769732 660.786847 1866.574024 663.418013 L 1385.249459 959.793662 Z M 137.46945 648.281421 " stroke="#000000" stroke-width="1" stroke-opacity="1" stroke-miterlimit="10"/><g mask="url(#6a9ccfbc7f)"><g transform="matrix(1, 0, 0, 1, 72, 113)"><g clip-path="url(#1bca284a72)"><g clip-path="url(#38b7856ecf)"><path fill="#f9a11b" d="M 163.011719 64.175781 L 161.71875 39.527344 L 1.855469 1.5625 L 1.21875 23.808594 Z M 163.011719 64.175781 " fill-opacity="1" fill-rule="nonzero"/></g><g clip-path="url(#75c905c9e6)"><path stroke-linecap="butt" transform="matrix(0.132204, 0, 0, 0.13213, -20.127073, -62.641891)" fill="none" stroke-linejoin="miter" d="M 1385.279003 959.793662 L 1375.498866 773.246994 L 166.278007 485.917824 L 161.461807 654.282843 Z M 1385.279003 959.793662 " stroke="#000000" stroke-width="1" stroke-opacity="1" stroke-miterlimit="10"/></g></g></g></g><path stroke-linecap="butt" transform="matrix(0.132204, 0, 0, 0.13213, 51.872927, 50.358109)" fill-opacity="1" fill="#e98d24" fill-rule="nonzero" stroke-linejoin="miter" d="M 137.46945 648.281421 L 162.023208 635.243849 L 161.46181 654.282843 Z M 137.46945 648.281421 " stroke="#000000" stroke-width="1" stroke-opacity="1" stroke-miterlimit="10"/><path stroke-linecap="butt" transform="matrix(0.132204, 0, 0, 0.13213, 51.872927, 50.358109)" fill-opacity="1" fill="#e98d24" fill-rule="nonzero" stroke-linejoin="miter" d="M 149.081516 481.838039 L 166.189369 489.406335 L 166.278011 485.917824 Z M 149.081516 481.838039 " stroke="#000000" stroke-width="1" stroke-opacity="1" stroke-miterlimit="10"/><path stroke-linecap="butt" transform="matrix(0.132204, 0, 0, 0.13213, 51.872927, 50.358109)" fill-opacity="1" fill="#f7acbc" fill-rule="nonzero" stroke-linejoin="miter" d="M 787.804236 223.688197 L 465.857492 397.552057 L 587.8876 441.483649 L 892.756038 253.015344 Z M 787.804236 223.688197 " stroke="#000000" stroke-width="1" stroke-opacity="1" stroke-miterlimit="10"/><path stroke-linecap="butt" transform="matrix(0.132204, 0, 0, 0.13213, 51.872927, 50.358109)" fill-opacity="1" fill="#f7acbc" fill-rule="nonzero" stroke-linejoin="miter" d="M 988.873214 288.994313 L 683.738851 467.204029 L 696.000957 474.506252 L 1000.780753 295.113989 Z M 988.873214 288.994313 " stroke="#000000" stroke-width="1" stroke-opacity="1" stroke-miterlimit="10"/><path stroke-linecap="butt" transform="matrix(0.132204, 0, 0, 0.13213, 51.872927, 50.358109)" fill-opacity="1" fill="#e5e1d3" fill-rule="nonzero" stroke-linejoin="miter" d="M 1841.813435 542.236588 C 1805.618064 562.399001 1769.865902 583.211815 1734.231929 604.290701 C 1716.385395 614.756235 1698.686597 625.458279 1680.899158 636.071631 L 1627.802765 668.236889 L 1574.94275 700.75691 C 1557.421236 711.75459 1539.781533 722.604451 1522.319113 733.720386 C 1487.305632 755.804437 1452.469434 778.124997 1418.01735 801.125521 C 1454.212721 780.992672 1489.994431 760.179858 1525.628404 739.100971 C 1543.474938 728.635437 1561.173735 717.933394 1578.931628 707.320041 L 1632.028021 675.154784 L 1684.888036 642.575635 C 1702.40955 631.607519 1720.049253 620.757657 1737.511673 609.641723 C 1772.525154 587.587236 1807.390899 565.266676 1841.813435 542.236588 Z M 1841.813435 542.236588 " stroke="#000000" stroke-width="1" stroke-opacity="1" stroke-miterlimit="10"/><path stroke-linecap="butt" transform="matrix(0.132204, 0, 0, 0.13213, 51.872927, 50.358109)" fill-opacity="1" fill="#e5e1d3" fill-rule="nonzero" stroke-linejoin="miter" d="M 1843.349892 587.882872 C 1807.154521 608.015722 1771.372812 628.858099 1735.738838 649.907422 C 1717.892304 660.372956 1700.193507 671.104563 1682.406067 681.688352 L 1629.339222 713.853609 L 1576.479207 746.403194 C 1558.928145 757.371311 1541.317989 768.221172 1523.855569 779.337107 C 1488.842088 801.421158 1453.976343 823.741718 1419.553807 846.771806 C 1455.749178 826.638956 1491.530887 805.796579 1527.135313 784.747256 C 1544.981847 774.281722 1562.680645 763.550115 1580.468084 752.936762 L 1633.53493 720.771505 L 1686.394945 688.22192 C 1703.946006 677.253804 1721.556162 666.403942 1739.018582 655.288007 C 1774.032063 633.203957 1808.897808 610.883396 1843.349892 587.882872 Z M 1843.349892 587.882872 " stroke="#000000" stroke-width="1" stroke-opacity="1" stroke-miterlimit="10"/><path stroke-linecap="butt" transform="matrix(0.132204, 0, 0, 0.13213, 51.872927, 50.358109)" fill-opacity="1" fill="#e5e1d3" fill-rule="nonzero" stroke-linejoin="miter" d="M 1841.133849 635.184721 C 1804.938478 655.317571 1769.156768 676.130385 1733.552342 697.209271 C 1715.676261 707.674805 1697.977464 718.376849 1680.219571 728.990201 L 1627.123178 761.155459 L 1574.263163 793.67548 C 1556.712102 804.67316 1539.101946 815.523021 1521.639526 826.638956 C 1486.626045 848.723007 1451.789847 871.043567 1417.337764 894.044091 C 1453.533135 873.911242 1489.314844 853.098428 1524.91927 832.019541 C 1542.765804 821.554007 1560.494149 810.851964 1578.252041 800.238611 L 1631.318887 768.073354 L 1684.178902 735.523769 C 1701.729963 724.526089 1719.340119 713.676227 1736.802539 702.560293 C 1771.81602 680.476242 1806.681765 658.155682 1841.133849 635.184721 Z M 1841.133849 635.184721 " stroke="#000000" stroke-width="1" stroke-opacity="1" stroke-miterlimit="10"/><path stroke-linecap="butt" transform="matrix(0.132204, 0, 0, 0.13213, 51.872927, 50.358109)" fill-opacity="1" fill="#e5e1d3" fill-rule="nonzero" stroke-linejoin="miter" d="M 1313.951966 803.78625 C 1221.823667 777.474597 1129.281706 752.729817 1036.651104 728.546746 C 990.350577 716.277829 943.93186 704.600185 897.542691 692.656468 L 758.227447 657.6531 L 618.705373 623.507077 L 548.855694 606.774048 L 513.930854 598.437097 L 478.976468 590.247965 C 385.725373 568.370859 292.35609 547.0259 198.63224 527.247814 C 290.760539 553.589032 383.272952 578.333811 475.933102 602.516882 L 510.680658 611.622488 L 615.011968 638.40716 L 754.327211 673.380965 L 893.849286 707.497423 C 940.415738 718.613358 986.952644 729.965802 1033.578191 740.756536 C 1126.829285 762.663205 1220.198568 783.978601 1313.951966 803.78625 Z M 1313.951966 803.78625 " stroke="#000000" stroke-width="1" stroke-opacity="1" stroke-miterlimit="10"/><path stroke-linecap="butt" transform="matrix(0.132204, 0, 0, 0.13213, 51.872927, 50.358109)" fill-opacity="1" fill="#e5e1d3" fill-rule="nonzero" stroke-linejoin="miter" d="M 1313.626946 846.505733 C 1221.498647 820.223643 1128.956687 795.478863 1036.326084 771.266229 C 990.025557 759.026875 943.60684 747.349231 897.217671 735.405514 L 757.931975 700.402146 L 618.4099 666.256124 L 548.560221 649.523094 L 513.605835 641.15658 L 478.651448 632.997011 C 385.429901 611.090342 292.060618 589.774946 198.30722 569.996861 C 290.43552 596.308514 382.947933 621.082858 475.608082 645.265928 L 510.355638 654.371534 L 545.132741 663.299758 L 614.686948 681.126642 L 754.002192 716.130011 L 893.524266 750.24647 C 940.120266 761.362404 986.627624 772.714848 1033.282718 783.505582 C 1126.504265 805.382688 1219.873549 826.727647 1313.626946 846.505733 Z M 1313.626946 846.505733 " stroke="#000000" stroke-width="1" stroke-opacity="1" stroke-miterlimit="10"/><path stroke-linecap="butt" transform="matrix(0.132204, 0, 0, 0.13213, 51.872927, 50.358109)" fill-opacity="1" fill="#e5e1d3" fill-rule="nonzero" stroke-linejoin="miter" d="M 1313.272379 893.896273 C 1221.14408 867.614183 1128.631667 842.869403 1035.971517 818.656769 C 989.67099 806.417416 943.252274 794.739772 896.892652 782.766491 L 757.577408 747.792686 L 618.055333 713.6171 L 548.205655 696.913635 L 513.280815 688.54712 L 478.296881 680.357987 C 385.075334 658.480882 291.706051 637.135923 197.952654 617.387401 C 290.080953 643.699054 382.593366 668.443834 475.253515 692.656468 L 510.001071 701.762074 L 544.778175 710.690298 L 614.361928 728.517183 L 753.647625 763.490987 L 893.169699 797.63701 C 939.765699 808.723381 986.273057 820.075824 1032.928152 830.866559 C 1126.149699 852.773228 1219.518982 874.118187 1313.272379 893.896273 Z M 1313.272379 893.896273 " stroke="#000000" stroke-width="1" stroke-opacity="1" stroke-miterlimit="10"/><path stroke-linecap="butt" transform="matrix(0.132204, 0, 0, 0.13213, 51.872927, 50.358109)" fill-opacity="1" fill="#f04d6e" fill-rule="nonzero" stroke-linejoin="miter" d="M 448.42462 594.919022 L 361.910297 572.42108 C 361.910297 572.42108 348.525396 622.028895 360.314746 662.087648 L 393.732676 634.44563 L 424.550449 676.248639 C 424.550449 676.248639 425.28913 611.918124 448.42462 594.919022 Z M 448.42462 594.919022 " stroke="#000000" stroke-width="1" stroke-opacity="1" stroke-miterlimit="10"/><path stroke-linecap="butt" transform="matrix(0.132204, 0, 0, 0.13213, 51.872927, 50.358109)" fill-opacity="1" fill="#f04d6e" fill-rule="nonzero" stroke-linejoin="miter" d="M 994.250812 771.532302 L 907.352375 751.22207 C 907.352375 751.22207 893.967475 800.002102 905.756824 840.060856 L 939.174754 812.418838 L 969.992527 854.221847 C 969.992527 854.221847 971.115322 788.560967 994.250812 771.532302 Z M 994.250812 771.532302 " stroke="#000000" stroke-width="1" stroke-opacity="1" stroke-miterlimit="10"/><g mask="url(#5b06e4ca5d)"><g transform="matrix(1, 0, 0, 1, 282, 143)"><g clip-path="url(#186df9de97)"><g clip-path="url(#76f0bdc01f)"><path fill="#010101" d="M 16.53125 1.132812 L 21.488281 3.644531 L 0.84375 11.046875 Z M 16.53125 1.132812 " fill-opacity="1" fill-rule="nonzero"/></g><g clip-path="url(#cc036637f1)"><path stroke-linecap="butt" transform="matrix(0.132204, 0, 0, 0.13213, -230.127069, -92.641891)" fill="none" stroke-linejoin="miter" d="M 1865.746665 709.714698 L 1903.242114 728.724128 L 1747.084943 784.747256 Z M 1865.746665 709.714698 " stroke="#000000" stroke-width="1" stroke-opacity="1" stroke-miterlimit="10"/></g></g></g></g></svg>