<svg xmlns="http://www.w3.org/2000/svg" xmlns:xlink="http://www.w3.org/1999/xlink" width="500" zoomAndPan="magnify" viewBox="0 0 375 374.999991" height="500" preserveAspectRatio="xMidYMid meet" version="1.0"><defs><clipPath id="bc58a95e48"><path d="M 247.902344 27.351562 L 286.234375 27.351562 L 286.234375 255.585938 L 247.902344 255.585938 Z M 247.902344 27.351562 " clip-rule="nonzero"/></clipPath><clipPath id="62a6d2f077"><path d="M 247.902344 244.40625 C 247.902344 244.722656 248.113281 245.042969 248.539062 245.285156 L 265.542969 255.101562 C 266.382812 255.585938 267.753906 255.585938 268.589844 255.101562 L 285.601562 245.285156 C 286.023438 245.042969 286.234375 244.722656 286.234375 244.40625 C 286.234375 244.085938 286.234375 27.351562 286.234375 27.351562 L 247.902344 27.351562 C 247.902344 27.351562 247.902344 244.089844 247.902344 244.40625 Z M 247.902344 244.40625 " clip-rule="nonzero"/></clipPath><clipPath id="735546f832"><path d="M 247.902344 244.40625 C 247.902344 244.722656 248.113281 245.042969 248.539062 245.285156 L 265.542969 255.101562 C 266.382812 255.585938 267.753906 255.585938 268.589844 255.101562 L 285.601562 245.285156 C 286.023438 245.042969 286.234375 244.722656 286.234375 244.40625 C 286.234375 244.085938 286.234375 27.351562 286.234375 27.351562 L 247.902344 27.351562 C 247.902344 27.351562 247.902344 244.089844 247.902344 244.40625 " clip-rule="nonzero"/></clipPath><linearGradient x1="-2.210689" gradientTransform="matrix(7.195514, 0, 0, 7.192209, 263.810418, 141.406947)" y1="0" x2="3.116222" gradientUnits="userSpaceOnUse" y2="0" id="278598b56b"><stop stop-opacity="1" stop-color="rgb(60.798645%, 25.898743%, 11.799622%)" offset="0"/><stop stop-opacity="1" stop-color="rgb(60.798645%, 25.898743%, 11.799622%)" offset="0.25"/><stop stop-opacity="1" stop-color="rgb(60.798645%, 25.898743%, 11.799622%)" offset="0.375"/><stop stop-opacity="1" stop-color="rgb(60.798645%, 25.898743%, 11.799622%)" offset="0.40625"/><stop stop-opacity="1" stop-color="rgb(60.798645%, 25.898743%, 11.799622%)" offset="0.421875"/><stop stop-opacity="1" stop-color="rgb(60.798645%, 26.092529%, 11.799622%)" offset="0.429687"/><stop stop-opacity="1" stop-color="rgb(60.998535%, 26.469421%, 11.799622%)" offset="0.433594"/><stop stop-opacity="1" stop-color="rgb(61.199951%, 26.654053%, 11.799622%)" offset="0.4375"/><stop stop-opacity="1" stop-color="rgb(61.199951%, 26.68457%, 11.799622%)" offset="0.453125"/><stop stop-opacity="1" stop-color="rgb(61.199951%, 26.907349%, 11.799622%)" offset="0.460938"/><stop stop-opacity="1" stop-color="rgb(61.199951%, 27.288818%, 11.799622%)" offset="0.46875"/><stop stop-opacity="1" stop-color="rgb(61.38916%, 27.488708%, 11.799622%)" offset="0.476562"/><stop stop-opacity="1" stop-color="rgb(61.599731%, 27.648926%, 11.799622%)" offset="0.484375"/><stop stop-opacity="1" stop-color="rgb(61.810303%, 27.801514%, 11.799622%)" offset="0.5"/><stop stop-opacity="1" stop-color="rgb(61.999512%, 28.001404%, 11.799622%)" offset="0.503906"/><stop stop-opacity="1" stop-color="rgb(61.999512%, 28.199768%, 11.799622%)" offset="0.507813"/><stop stop-opacity="1" stop-color="rgb(61.999512%, 28.382874%, 11.799622%)" offset="0.515625"/><stop stop-opacity="1" stop-color="rgb(61.999512%, 28.607178%, 11.799622%)" offset="0.523438"/><stop stop-opacity="1" stop-color="rgb(61.999512%, 28.823853%, 11.799622%)" offset="0.53125"/><stop stop-opacity="1" stop-color="rgb(62.199402%, 29.199219%, 11.799622%)" offset="0.535156"/><stop stop-opacity="1" stop-color="rgb(62.399292%, 29.399109%, 11.799622%)" offset="0.539063"/><stop stop-opacity="1" stop-color="rgb(62.399292%, 29.399109%, 11.799622%)" offset="0.546875"/><stop stop-opacity="1" stop-color="rgb(62.399292%, 29.585266%, 11.799622%)" offset="0.554688"/><stop stop-opacity="1" stop-color="rgb(62.532043%, 29.785156%, 11.621094%)" offset="0.5625"/><stop stop-opacity="1" stop-color="rgb(62.68158%, 29.998779%, 11.621094%)" offset="0.566406"/><stop stop-opacity="1" stop-color="rgb(62.69989%, 30.198669%, 11.799622%)" offset="0.570313"/><stop stop-opacity="1" stop-color="rgb(62.69989%, 30.198669%, 11.799622%)" offset="0.578125"/><stop stop-opacity="1" stop-color="rgb(62.893677%, 30.198669%, 11.799622%)" offset="0.59375"/><stop stop-opacity="1" stop-color="rgb(63.093567%, 30.39856%, 11.799622%)" offset="0.597656"/><stop stop-opacity="1" stop-color="rgb(63.09967%, 30.599976%, 11.799622%)" offset="0.601563"/><stop stop-opacity="1" stop-color="rgb(63.09967%, 30.599976%, 11.799622%)" offset="0.609375"/><stop stop-opacity="1" stop-color="rgb(63.09967%, 30.599976%, 11.799622%)" offset="0.625"/><stop stop-opacity="1" stop-color="rgb(63.09967%, 30.599976%, 11.799622%)" offset="0.75"/><stop stop-opacity="1" stop-color="rgb(63.09967%, 30.599976%, 11.799622%)" offset="1"/></linearGradient><clipPath id="accf958101"><path d="M 247.144531 16.289062 L 286.234375 16.289062 L 286.234375 38.976562 L 247.144531 38.976562 Z M 247.144531 16.289062 " clip-rule="nonzero"/></clipPath><clipPath id="d09c1b68c1"><path d="M 100.492188 112.933594 L 138.820312 112.933594 L 138.820312 341.039062 L 100.492188 341.039062 Z M 100.492188 112.933594 " clip-rule="nonzero"/></clipPath><clipPath id="ba31b9b0ec"><path d="M 100.492188 329.988281 C 100.492188 330.308594 100.703125 330.628906 101.125 330.867188 L 118.132812 340.683594 C 118.972656 341.167969 120.339844 341.167969 121.179688 340.683594 L 138.1875 330.867188 C 138.613281 330.628906 138.820312 330.308594 138.820312 329.988281 C 138.820312 329.671875 138.820312 112.933594 138.820312 112.933594 L 100.492188 112.933594 C 100.492188 112.933594 100.492188 329.671875 100.492188 329.988281 Z M 100.492188 329.988281 " clip-rule="nonzero"/></clipPath><clipPath id="08736df762"><path d="M 100.492188 329.988281 C 100.492188 330.308594 100.703125 330.628906 101.125 330.867188 L 118.132812 340.683594 C 118.972656 341.167969 120.339844 341.167969 121.179688 340.683594 L 138.1875 330.867188 C 138.613281 330.628906 138.820312 330.308594 138.820312 329.988281 C 138.820312 329.671875 138.820312 112.933594 138.820312 112.933594 L 100.492188 112.933594 C 100.492188 112.933594 100.492188 329.671875 100.492188 329.988281 " clip-rule="nonzero"/></clipPath><linearGradient x1="-1.767569" gradientTransform="matrix(8.380157, 0, 0, 8.376307, 115.305643, 226.991055)" y1="0" x2="2.805908" gradientUnits="userSpaceOnUse" y2="0" id="be575d1a6f"><stop stop-opacity="1" stop-color="rgb(60.798645%, 25.898743%, 11.799622%)" offset="0"/><stop stop-opacity="1" stop-color="rgb(60.798645%, 25.898743%, 11.799622%)" offset="0.25"/><stop stop-opacity="1" stop-color="rgb(60.798645%, 25.898743%, 11.799622%)" offset="0.375"/><stop stop-opacity="1" stop-color="rgb(60.798645%, 25.898743%, 11.799622%)" offset="0.390625"/><stop stop-opacity="1" stop-color="rgb(60.998535%, 26.098633%, 11.799622%)" offset="0.394531"/><stop stop-opacity="1" stop-color="rgb(61.199951%, 26.298523%, 11.799622%)" offset="0.398437"/><stop stop-opacity="1" stop-color="rgb(61.199951%, 26.298523%, 11.799622%)" offset="0.40625"/><stop stop-opacity="1" stop-color="rgb(61.199951%, 26.304626%, 11.799622%)" offset="0.414062"/><stop stop-opacity="1" stop-color="rgb(61.199951%, 26.504517%, 11.799622%)" offset="0.421875"/><stop stop-opacity="1" stop-color="rgb(61.199951%, 26.699829%, 11.799622%)" offset="0.429687"/><stop stop-opacity="1" stop-color="rgb(61.199951%, 26.899719%, 11.799622%)" offset="0.433594"/><stop stop-opacity="1" stop-color="rgb(61.199951%, 27.099609%, 11.799622%)" offset="0.4375"/><stop stop-opacity="1" stop-color="rgb(61.199951%, 27.099609%, 11.799622%)" offset="0.445312"/><stop stop-opacity="1" stop-color="rgb(61.207581%, 27.2995%, 11.799622%)" offset="0.449219"/><stop stop-opacity="1" stop-color="rgb(61.216736%, 27.49939%, 11.799622%)" offset="0.453125"/><stop stop-opacity="1" stop-color="rgb(61.605835%, 27.6474%, 11.799622%)" offset="0.457031"/><stop stop-opacity="1" stop-color="rgb(61.99646%, 27.796936%, 11.799622%)" offset="0.460937"/><stop stop-opacity="1" stop-color="rgb(61.997986%, 27.798462%, 11.799622%)" offset="0.46875"/><stop stop-opacity="1" stop-color="rgb(61.999512%, 27.809143%, 11.799622%)" offset="0.484375"/><stop stop-opacity="1" stop-color="rgb(61.999512%, 28.010559%, 11.799622%)" offset="0.5"/><stop stop-opacity="1" stop-color="rgb(61.999512%, 28.396606%, 11.799622%)" offset="0.507812"/><stop stop-opacity="1" stop-color="rgb(61.999512%, 28.778076%, 11.799622%)" offset="0.515625"/><stop stop-opacity="1" stop-color="rgb(61.999512%, 28.982544%, 11.799622%)" offset="0.523437"/><stop stop-opacity="1" stop-color="rgb(62.199402%, 29.199219%, 11.799622%)" offset="0.527344"/><stop stop-opacity="1" stop-color="rgb(62.399292%, 29.399109%, 11.799622%)" offset="0.53125"/><stop stop-opacity="1" stop-color="rgb(62.399292%, 29.594421%, 11.799622%)" offset="0.546875"/><stop stop-opacity="1" stop-color="rgb(62.548828%, 29.794312%, 11.787415%)" offset="0.5625"/><stop stop-opacity="1" stop-color="rgb(62.69989%, 29.998779%, 11.787415%)" offset="0.566406"/><stop stop-opacity="1" stop-color="rgb(62.69989%, 30.198669%, 11.799622%)" offset="0.570312"/><stop stop-opacity="1" stop-color="rgb(62.69989%, 30.198669%, 11.799622%)" offset="0.578125"/><stop stop-opacity="1" stop-color="rgb(62.893677%, 30.198669%, 11.799622%)" offset="0.59375"/><stop stop-opacity="1" stop-color="rgb(63.093567%, 30.39856%, 11.799622%)" offset="0.597656"/><stop stop-opacity="1" stop-color="rgb(63.09967%, 30.599976%, 11.799622%)" offset="0.601562"/><stop stop-opacity="1" stop-color="rgb(63.09967%, 30.599976%, 11.799622%)" offset="0.609375"/><stop stop-opacity="1" stop-color="rgb(63.09967%, 30.599976%, 11.799622%)" offset="0.625"/><stop stop-opacity="1" stop-color="rgb(63.09967%, 30.599976%, 11.799622%)" offset="0.75"/><stop stop-opacity="1" stop-color="rgb(63.09967%, 30.599976%, 11.799622%)" offset="1"/></linearGradient><clipPath id="5b82344022"><path d="M 100.285156 101 L 139 101 L 139 124 L 100.285156 124 Z M 100.285156 101 " clip-rule="nonzero"/></clipPath></defs><g clip-path="url(#bc58a95e48)"><g clip-path="url(#62a6d2f077)"><g clip-path="url(#735546f832)"><path fill="url(#278598b56b)" d="M 247.902344 27.351562 L 247.902344 255.585938 L 286.234375 255.585938 L 286.234375 27.351562 Z M 247.902344 27.351562 " fill-rule="nonzero"/></g></g></g><g clip-path="url(#accf958101)"><path fill="#c0701d" d="M 285.601562 26.46875 L 268.589844 16.65625 C 267.753906 16.171875 266.382812 16.171875 265.542969 16.65625 L 248.539062 26.46875 C 247.695312 26.957031 247.695312 27.746094 248.539062 28.230469 L 265.542969 38.046875 C 266.382812 38.527344 267.753906 38.527344 268.589844 38.046875 L 285.601562 28.230469 C 286.441406 27.746094 286.441406 26.957031 285.601562 26.46875 " fill-opacity="1" fill-rule="nonzero"/></g><path fill="#64cabf" d="M 270.386719 190.234375 L 242.007812 173.855469 C 240.953125 173.246094 239.253906 173.246094 238.203125 173.855469 L 209.820312 190.234375 C 208.765625 190.839844 208.765625 191.824219 209.820312 192.433594 L 238.203125 208.808594 C 239.253906 209.414062 240.953125 209.414062 242.007812 208.808594 L 270.386719 192.433594 C 271.441406 191.824219 271.441406 190.839844 270.386719 190.234375 " fill-opacity="1" fill-rule="nonzero"/><path fill="#099394" d="M 210.902344 190.425781 C 209.859375 189.820312 209.015625 190.308594 209.015625 191.511719 L 209.015625 223.015625 C 209.015625 224.21875 209.859375 225.679688 210.902344 226.285156 L 238.195312 242.03125 C 238.746094 242.351562 239.296875 242.617188 240.085938 242.617188 C 240.085938 242.617188 240.085938 241.519531 240.085938 240.945312 L 240.085938 207.253906 C 240.085938 207.253906 239.238281 206.777344 238.195312 206.175781 L 210.902344 190.425781 " fill-opacity="1" fill-rule="nonzero"/><path fill="#08a3aa" d="M 269.265625 190.425781 L 241.972656 206.175781 C 240.929688 206.777344 240.085938 207.253906 240.085938 207.253906 L 240.085938 240.945312 C 240.085938 241.546875 240.085938 242.617188 240.085938 242.617188 C 241.039062 242.617188 241.449219 242.335938 241.972656 242.03125 L 269.265625 226.285156 C 270.308594 225.679688 271.15625 224.21875 271.15625 223.015625 L 271.15625 191.511719 C 271.15625 190.308594 270.308594 189.820312 269.265625 190.425781 " fill-opacity="1" fill-rule="nonzero"/><path fill="#64cabf" d="M 223.320312 217.394531 L 194.9375 201.019531 C 193.886719 200.410156 192.183594 200.410156 191.132812 201.019531 L 162.753906 217.394531 C 161.699219 218 161.699219 218.984375 162.753906 219.59375 L 191.132812 235.96875 C 192.183594 236.578125 193.886719 236.578125 194.9375 235.96875 L 223.320312 219.59375 C 224.371094 218.984375 224.371094 218 223.320312 217.394531 " fill-opacity="1" fill-rule="nonzero"/><path fill="#099394" d="M 163.835938 217.585938 C 162.792969 216.980469 161.949219 217.472656 161.949219 218.675781 L 161.949219 250.175781 C 161.949219 251.382812 162.792969 252.84375 163.835938 253.445312 L 191.128906 269.195312 C 191.679688 269.511719 192.230469 269.777344 193.015625 269.777344 C 193.015625 269.777344 193.015625 268.679688 193.015625 268.105469 L 193.015625 234.414062 C 193.015625 234.414062 192.171875 233.9375 191.128906 233.339844 L 163.835938 217.585938 " fill-opacity="1" fill-rule="nonzero"/><path fill="#08a3aa" d="M 222.199219 217.585938 L 194.90625 233.339844 C 193.863281 233.9375 193.015625 234.414062 193.015625 234.414062 L 193.015625 268.105469 C 193.015625 268.707031 193.015625 269.777344 193.015625 269.777344 C 193.96875 269.777344 194.382812 269.496094 194.90625 269.195312 L 222.199219 253.445312 C 223.238281 252.84375 224.085938 251.382812 224.085938 250.175781 L 224.085938 218.675781 C 224.085938 217.472656 223.238281 216.980469 222.199219 217.585938 " fill-opacity="1" fill-rule="nonzero"/><path fill="#64cabf" d="M 176.257812 244.558594 L 147.871094 228.179688 C 146.824219 227.570312 145.117188 227.570312 144.066406 228.179688 L 115.683594 244.558594 C 114.632812 245.164062 114.632812 246.148438 115.683594 246.753906 L 144.066406 263.132812 C 145.117188 263.738281 146.824219 263.738281 147.871094 263.132812 L 176.257812 246.753906 C 177.304688 246.148438 177.304688 245.164062 176.257812 244.558594 " fill-opacity="1" fill-rule="nonzero"/><path fill="#099394" d="M 116.769531 244.75 C 115.726562 244.144531 114.878906 244.632812 114.878906 245.835938 L 114.878906 277.339844 C 114.878906 278.542969 115.726562 280.003906 116.769531 280.609375 L 144.0625 296.355469 C 144.609375 296.675781 145.160156 296.9375 145.949219 296.9375 C 145.949219 296.9375 145.949219 295.839844 145.949219 295.269531 L 145.949219 261.578125 C 145.949219 261.578125 145.105469 261.097656 144.0625 260.5 L 116.769531 244.75 " fill-opacity="1" fill-rule="nonzero"/><path fill="#08a3aa" d="M 175.128906 244.75 L 147.839844 260.5 C 146.796875 261.097656 145.949219 261.578125 145.949219 261.578125 L 145.949219 295.269531 C 145.949219 295.871094 145.949219 296.9375 145.949219 296.9375 C 146.902344 296.9375 147.3125 296.660156 147.839844 296.355469 L 175.128906 280.609375 C 176.175781 280.003906 177.019531 278.542969 177.019531 277.339844 L 177.019531 245.835938 C 177.019531 244.632812 176.175781 244.144531 175.128906 244.75 " fill-opacity="1" fill-rule="nonzero"/><path fill="#64cabf" d="M 270.386719 128.730469 L 242.007812 112.355469 C 240.953125 111.75 239.253906 111.75 238.203125 112.355469 L 209.820312 128.730469 C 208.765625 129.339844 208.765625 130.324219 209.820312 130.929688 L 238.203125 147.308594 C 239.253906 147.917969 240.953125 147.917969 242.007812 147.308594 L 270.386719 130.929688 C 271.441406 130.324219 271.441406 129.339844 270.386719 128.730469 " fill-opacity="1" fill-rule="nonzero"/><path fill="#099394" d="M 210.902344 128.921875 C 209.859375 128.324219 209.015625 128.808594 209.015625 130.011719 L 209.015625 161.515625 C 209.015625 162.71875 209.859375 164.179688 210.902344 164.785156 L 238.195312 180.535156 C 238.746094 180.851562 239.296875 181.113281 240.085938 181.113281 C 240.085938 181.113281 240.085938 180.015625 240.085938 179.445312 L 240.085938 145.757812 C 240.085938 145.757812 239.238281 145.277344 238.195312 144.675781 L 210.902344 128.921875 " fill-opacity="1" fill-rule="nonzero"/><path fill="#08a3aa" d="M 269.265625 128.921875 L 241.972656 144.675781 C 240.929688 145.277344 240.085938 145.757812 240.085938 145.757812 L 240.085938 179.445312 C 240.085938 180.042969 240.085938 181.113281 240.085938 181.113281 C 241.039062 181.113281 241.449219 180.835938 241.972656 180.535156 L 269.265625 164.785156 C 270.308594 164.179688 271.15625 162.71875 271.15625 161.515625 L 271.15625 130.011719 C 271.15625 128.808594 270.308594 128.324219 269.265625 128.921875 " fill-opacity="1" fill-rule="nonzero"/><path fill="#64cabf" d="M 223.320312 155.894531 L 194.9375 139.515625 C 193.886719 138.910156 192.183594 138.910156 191.132812 139.515625 L 162.753906 155.894531 C 161.699219 156.503906 161.699219 157.484375 162.753906 158.089844 L 191.132812 174.472656 C 192.183594 175.078125 193.886719 175.078125 194.9375 174.472656 L 223.320312 158.089844 C 224.371094 157.484375 224.371094 156.503906 223.320312 155.894531 " fill-opacity="1" fill-rule="nonzero"/><path fill="#099394" d="M 163.835938 156.085938 C 162.792969 155.484375 161.949219 155.972656 161.949219 157.175781 L 161.949219 188.675781 C 161.949219 189.878906 162.792969 191.34375 163.835938 191.945312 L 191.128906 207.695312 C 191.679688 208.011719 192.230469 208.277344 193.015625 208.277344 C 193.015625 208.277344 193.015625 207.175781 193.015625 206.605469 L 193.015625 172.917969 C 193.015625 172.917969 192.171875 172.441406 191.128906 171.835938 L 163.835938 156.085938 " fill-opacity="1" fill-rule="nonzero"/><path fill="#08a3aa" d="M 222.199219 156.085938 L 194.90625 171.835938 C 193.863281 172.441406 193.015625 172.917969 193.015625 172.917969 L 193.015625 206.605469 C 193.015625 207.207031 193.015625 208.277344 193.015625 208.277344 C 193.96875 208.277344 194.382812 207.996094 194.90625 207.695312 L 222.199219 191.945312 C 223.238281 191.34375 224.085938 189.878906 224.085938 188.675781 L 224.085938 157.175781 C 224.085938 155.972656 223.238281 155.484375 222.199219 156.085938 " fill-opacity="1" fill-rule="nonzero"/><path fill="#64cabf" d="M 176.257812 183.054688 L 147.871094 166.675781 C 146.824219 166.070312 145.117188 166.070312 144.066406 166.675781 L 115.683594 183.054688 C 114.632812 183.664062 114.632812 184.648438 115.683594 185.25 L 144.066406 201.632812 C 145.117188 202.238281 146.824219 202.238281 147.871094 201.632812 L 176.257812 185.25 C 177.304688 184.648438 177.304688 183.664062 176.257812 183.054688 " fill-opacity="1" fill-rule="nonzero"/><path fill="#099394" d="M 116.769531 183.246094 C 115.726562 182.644531 114.878906 183.132812 114.878906 184.335938 L 114.878906 215.835938 C 114.878906 217.042969 115.726562 218.503906 116.769531 219.105469 L 144.0625 234.859375 C 144.609375 235.171875 145.160156 235.4375 145.949219 235.4375 C 145.949219 235.4375 145.949219 234.339844 145.949219 233.769531 L 145.949219 200.078125 C 145.949219 200.078125 145.105469 199.601562 144.0625 198.996094 L 116.769531 183.246094 " fill-opacity="1" fill-rule="nonzero"/><path fill="#08a3aa" d="M 175.128906 183.246094 L 147.839844 198.996094 C 146.796875 199.601562 145.949219 200.078125 145.949219 200.078125 L 145.949219 233.769531 C 145.949219 234.367188 145.949219 235.4375 145.949219 235.4375 C 146.902344 235.4375 147.3125 235.160156 147.839844 234.859375 L 175.128906 219.105469 C 176.175781 218.503906 177.019531 217.042969 177.019531 215.835938 L 177.019531 184.335938 C 177.019531 183.132812 176.175781 182.644531 175.128906 183.246094 " fill-opacity="1" fill-rule="nonzero"/><path fill="#64cabf" d="M 270.386719 67.234375 L 242.007812 50.851562 C 240.953125 50.246094 239.253906 50.246094 238.203125 50.851562 L 209.820312 67.234375 C 208.765625 67.839844 208.765625 68.820312 209.820312 69.429688 L 238.203125 85.808594 C 239.253906 86.414062 240.953125 86.414062 242.007812 85.808594 L 270.386719 69.429688 C 271.441406 68.820312 271.441406 67.839844 270.386719 67.234375 " fill-opacity="1" fill-rule="nonzero"/><path fill="#099394" d="M 210.902344 67.425781 C 209.859375 66.820312 209.015625 67.308594 209.015625 68.511719 L 209.015625 100.015625 C 209.015625 101.21875 209.859375 102.683594 210.902344 103.28125 L 238.195312 119.035156 C 238.746094 119.347656 239.296875 119.613281 240.085938 119.613281 C 240.085938 119.613281 240.085938 118.515625 240.085938 117.945312 L 240.085938 84.253906 C 240.085938 84.253906 239.238281 83.777344 238.195312 83.171875 L 210.902344 67.425781 " fill-opacity="1" fill-rule="nonzero"/><path fill="#08a3aa" d="M 269.265625 67.425781 L 241.972656 83.171875 C 240.929688 83.777344 240.085938 84.253906 240.085938 84.253906 L 240.085938 117.945312 C 240.085938 118.542969 240.085938 119.613281 240.085938 119.613281 C 241.039062 119.613281 241.449219 119.335938 241.972656 119.035156 L 269.265625 103.28125 C 270.308594 102.683594 271.15625 101.21875 271.15625 100.015625 L 271.15625 68.511719 C 271.15625 67.308594 270.308594 66.820312 269.265625 67.425781 " fill-opacity="1" fill-rule="nonzero"/><path fill="#64cabf" d="M 223.320312 94.394531 L 194.9375 78.015625 C 193.886719 77.410156 192.183594 77.410156 191.132812 78.015625 L 162.753906 94.394531 C 161.699219 95 161.699219 95.984375 162.753906 96.59375 L 191.132812 112.972656 C 192.183594 113.578125 193.886719 113.578125 194.9375 112.972656 L 223.320312 96.59375 C 224.371094 95.984375 224.371094 95 223.320312 94.394531 " fill-opacity="1" fill-rule="nonzero"/><path fill="#099394" d="M 163.835938 94.585938 C 162.792969 93.984375 161.949219 94.472656 161.949219 95.675781 L 161.949219 127.179688 C 161.949219 128.382812 162.792969 129.84375 163.835938 130.445312 L 191.128906 146.195312 C 191.679688 146.511719 192.230469 146.773438 193.015625 146.773438 C 193.015625 146.773438 193.015625 145.679688 193.015625 145.105469 L 193.015625 111.414062 C 193.015625 111.414062 192.171875 110.9375 191.128906 110.335938 L 163.835938 94.585938 " fill-opacity="1" fill-rule="nonzero"/><path fill="#08a3aa" d="M 222.199219 94.585938 L 194.90625 110.335938 C 193.863281 110.9375 193.015625 111.414062 193.015625 111.414062 L 193.015625 145.105469 C 193.015625 145.707031 193.015625 146.773438 193.015625 146.773438 C 193.96875 146.773438 194.382812 146.496094 194.90625 146.195312 L 222.199219 130.445312 C 223.238281 129.84375 224.085938 128.382812 224.085938 127.179688 L 224.085938 95.675781 C 224.085938 94.472656 223.238281 93.984375 222.199219 94.585938 " fill-opacity="1" fill-rule="nonzero"/><path fill="#64cabf" d="M 176.257812 121.558594 L 147.871094 105.175781 C 146.824219 104.570312 145.117188 104.570312 144.066406 105.175781 L 115.683594 121.558594 C 114.632812 122.164062 114.632812 123.144531 115.683594 123.753906 L 144.066406 140.132812 C 145.117188 140.738281 146.824219 140.738281 147.871094 140.132812 L 176.257812 123.753906 C 177.304688 123.144531 177.304688 122.164062 176.257812 121.558594 " fill-opacity="1" fill-rule="nonzero"/><path fill="#099394" d="M 116.769531 121.75 C 115.726562 121.144531 114.878906 121.632812 114.878906 122.835938 L 114.878906 154.339844 C 114.878906 155.542969 115.726562 157.003906 116.769531 157.605469 L 144.0625 173.355469 C 144.609375 173.671875 145.160156 173.9375 145.949219 173.9375 C 145.949219 173.9375 145.949219 172.839844 145.949219 172.269531 L 145.949219 138.578125 C 145.949219 138.578125 145.105469 138.097656 144.0625 137.5 L 116.769531 121.75 " fill-opacity="1" fill-rule="nonzero"/><path fill="#08a3aa" d="M 175.128906 121.75 L 147.839844 137.5 C 146.796875 138.097656 145.949219 138.578125 145.949219 138.578125 L 145.949219 172.269531 C 145.949219 172.867188 145.949219 173.9375 145.949219 173.9375 C 146.902344 173.9375 147.3125 173.660156 147.839844 173.355469 L 175.128906 157.605469 C 176.175781 157.003906 177.019531 155.542969 177.019531 154.339844 L 177.019531 122.835938 C 177.019531 121.632812 176.175781 121.144531 175.128906 121.75 " fill-opacity="1" fill-rule="nonzero"/><g clip-path="url(#d09c1b68c1)"><g clip-path="url(#ba31b9b0ec)"><g clip-path="url(#08736df762)"><path fill="url(#be575d1a6f)" d="M 100.492188 112.933594 L 100.492188 341.039062 L 138.820312 341.039062 L 138.820312 112.933594 Z M 100.492188 112.933594 " fill-rule="nonzero"/></g></g></g><g clip-path="url(#5b82344022)"><path fill="#c0701d" d="M 138.1875 112.054688 L 121.179688 102.238281 C 120.339844 101.753906 118.972656 101.753906 118.132812 102.238281 L 101.125 112.054688 C 100.28125 112.539062 100.28125 113.328125 101.125 113.8125 L 118.132812 123.628906 C 118.972656 124.113281 120.339844 124.113281 121.179688 123.628906 L 138.1875 113.8125 C 139.03125 113.328125 139.03125 112.539062 138.1875 112.054688 " fill-opacity="1" fill-rule="nonzero"/></g><path fill="#ffffff" d="M 268.558594 134.285156 L 268.425781 134.210938 C 267.125 133.457031 265.015625 134.671875 263.71875 136.925781 L 257.441406 147.789062 L 251.164062 144.167969 C 249.863281 143.417969 247.757812 144.636719 246.457031 146.886719 L 246.324219 147.113281 C 245.027344 149.363281 245.027344 151.796875 246.324219 152.546875 L 252.601562 156.167969 L 246.324219 167.035156 C 245.027344 169.285156 245.027344 171.71875 246.324219 172.46875 L 246.457031 172.546875 C 247.757812 173.296875 249.863281 172.078125 251.164062 169.828125 L 257.441406 158.960938 L 263.71875 162.582031 C 265.015625 163.332031 267.125 162.117188 268.425781 159.867188 L 268.558594 159.640625 C 269.855469 157.386719 269.855469 154.957031 268.558594 154.207031 L 262.277344 150.582031 L 268.558594 139.71875 C 269.855469 137.46875 269.855469 135.035156 268.558594 134.285156 " fill-opacity="1" fill-rule="nonzero"/><path fill="#ffffff" d="M 173.859375 127.230469 L 173.730469 127.152344 C 172.429688 126.402344 170.320312 127.621094 169.019531 129.875 L 162.742188 140.738281 L 156.464844 137.117188 C 155.167969 136.367188 153.058594 137.582031 151.761719 139.835938 L 151.625 140.0625 C 150.328125 142.308594 150.328125 144.742188 151.625 145.492188 L 157.90625 149.117188 L 151.625 159.984375 C 150.328125 162.234375 150.328125 164.667969 151.625 165.417969 L 151.761719 165.492188 C 153.058594 166.242188 155.167969 165.027344 156.464844 162.777344 L 162.742188 151.90625 L 169.019531 155.53125 C 170.320312 156.28125 172.429688 155.066406 173.730469 152.816406 L 173.859375 152.589844 C 175.15625 150.335938 175.15625 147.90625 173.859375 147.152344 L 167.582031 143.535156 L 173.859375 132.664062 C 175.15625 130.414062 175.15625 127.980469 173.859375 127.230469 " fill-opacity="1" fill-rule="nonzero"/><path fill="#ffffff" d="M 221.886719 224.546875 L 221.753906 224.46875 C 220.453125 223.71875 218.347656 224.9375 217.046875 227.191406 L 210.769531 238.054688 L 204.492188 234.433594 C 203.195312 233.683594 201.085938 234.898438 199.785156 237.148438 L 199.65625 237.378906 C 198.355469 239.625 198.355469 242.058594 199.65625 242.808594 L 205.933594 246.433594 L 199.65625 257.296875 C 198.355469 259.550781 198.355469 261.984375 199.65625 262.734375 L 199.785156 262.808594 C 201.085938 263.558594 203.195312 262.34375 204.492188 260.09375 L 210.769531 249.222656 L 217.046875 252.847656 C 218.347656 253.597656 220.453125 252.378906 221.753906 250.128906 L 221.886719 249.902344 C 223.183594 247.652344 223.183594 245.21875 221.886719 244.46875 L 215.609375 240.847656 L 221.886719 229.980469 C 223.183594 227.730469 223.183594 225.296875 221.886719 224.546875 " fill-opacity="1" fill-rule="nonzero"/><path fill="#ffffff" d="M 268.367188 74.082031 L 268.234375 74.003906 C 266.9375 73.253906 264.828125 74.46875 263.527344 76.722656 L 257.25 87.589844 L 250.976562 83.96875 C 249.671875 83.214844 247.566406 84.429688 246.265625 86.683594 L 246.136719 86.910156 C 244.835938 89.160156 244.835938 91.59375 246.136719 92.34375 L 252.410156 95.964844 L 246.136719 106.832031 C 244.835938 109.082031 244.835938 111.515625 246.136719 112.265625 L 246.265625 112.339844 C 247.566406 113.089844 249.671875 111.875 250.976562 109.625 L 257.25 98.757812 L 263.527344 102.378906 C 264.828125 103.128906 266.9375 101.914062 268.234375 99.664062 L 268.367188 99.4375 C 269.667969 97.183594 269.667969 94.753906 268.367188 94.003906 L 262.089844 90.382812 L 268.367188 79.511719 C 269.667969 77.265625 269.667969 74.832031 268.367188 74.082031 " fill-opacity="1" fill-rule="nonzero"/><path fill="#ffffff" d="M 209.054688 188.933594 C 205.382812 191.054688 202.394531 189.332031 202.394531 185.09375 C 202.394531 180.859375 205.382812 175.6875 209.054688 173.566406 C 212.722656 171.449219 215.710938 173.171875 215.710938 177.410156 C 215.710938 181.648438 212.722656 186.820312 209.054688 188.933594 Z M 209.054688 167.164062 C 202.324219 171.050781 196.847656 180.527344 196.847656 188.296875 C 196.847656 196.066406 202.324219 199.226562 209.054688 195.339844 C 215.78125 191.457031 221.257812 181.976562 221.257812 174.207031 C 221.257812 166.441406 215.78125 163.28125 209.054688 167.164062 " fill-opacity="1" fill-rule="nonzero"/><path fill="#ffffff" d="M 208.757812 126.828125 C 205.089844 128.945312 202.101562 127.222656 202.101562 122.984375 C 202.101562 118.75 205.089844 113.578125 208.757812 111.457031 C 212.429688 109.339844 215.417969 111.0625 215.417969 115.300781 C 215.417969 119.539062 212.429688 124.710938 208.757812 126.828125 Z M 208.757812 105.054688 C 202.03125 108.941406 196.554688 118.417969 196.554688 126.1875 C 196.554688 133.957031 202.03125 137.117188 208.757812 133.230469 C 215.488281 129.347656 220.964844 119.867188 220.964844 112.101562 C 220.964844 104.332031 215.488281 101.171875 208.757812 105.054688 " fill-opacity="1" fill-rule="nonzero"/><path fill="#ffffff" d="M 256.875 223.800781 C 253.203125 225.921875 250.214844 224.199219 250.214844 219.960938 C 250.214844 215.722656 253.203125 210.550781 256.875 208.433594 C 260.542969 206.3125 263.53125 208.039062 263.53125 212.273438 C 263.53125 216.511719 260.542969 221.683594 256.875 223.800781 Z M 256.875 202.03125 C 250.144531 205.914062 244.667969 215.394531 244.667969 223.160156 C 244.667969 230.933594 250.144531 234.089844 256.875 230.207031 C 263.601562 226.320312 269.078125 216.84375 269.078125 209.074219 C 269.078125 201.308594 263.601562 198.148438 256.875 202.03125 " fill-opacity="1" fill-rule="nonzero"/><path fill="#ffffff" d="M 161.484375 216.636719 C 157.8125 218.757812 154.824219 217.035156 154.824219 212.796875 C 154.824219 208.558594 157.8125 203.386719 161.484375 201.269531 C 165.15625 199.148438 168.144531 200.875 168.144531 205.109375 C 168.144531 209.347656 165.15625 214.519531 161.484375 216.636719 Z M 161.484375 194.867188 C 154.753906 198.75 149.277344 208.230469 149.277344 215.996094 C 149.277344 223.765625 154.753906 226.925781 161.484375 223.042969 C 168.214844 219.160156 173.691406 209.679688 173.691406 201.910156 C 173.691406 194.144531 168.214844 190.984375 161.484375 194.867188 " fill-opacity="1" fill-rule="nonzero"/><path fill="#ffffff" d="M 172.425781 251.253906 L 172.292969 251.179688 C 170.996094 250.429688 168.886719 251.644531 167.589844 253.898438 L 161.3125 264.761719 L 155.035156 261.144531 C 153.730469 260.390625 151.625 261.605469 150.324219 263.859375 L 150.195312 264.085938 C 148.894531 266.332031 148.894531 268.765625 150.195312 269.515625 L 156.472656 273.140625 L 150.195312 284.007812 C 148.894531 286.257812 148.894531 288.691406 150.195312 289.441406 L 150.324219 289.515625 C 151.625 290.269531 153.730469 289.050781 155.035156 286.800781 L 161.3125 275.929688 L 167.589844 279.554688 C 168.886719 280.308594 170.996094 279.085938 172.292969 276.839844 L 172.425781 276.613281 C 173.726562 274.359375 173.726562 271.929688 172.425781 271.179688 L 166.148438 267.558594 L 172.425781 256.6875 C 173.726562 254.4375 173.726562 252.003906 172.425781 251.253906 " fill-opacity="1" fill-rule="nonzero"/></svg>